<svg id="Слой_1" data-name="Слой 1" xmlns="http://www.w3.org/2000/svg" xmlns:xlink="http://www.w3.org/1999/xlink" viewBox="0 0 820 500"><defs><style>.cls-1{fill:#f7f7f7;}.cls-2{fill:url(#linear-gradient);}.cls-3{fill:url(#linear-gradient-2);}.cls-4{fill:#fff;}.cls-5{fill:url(#linear-gradient-3);}.cls-6{fill:url(#linear-gradient-4);}.cls-7{fill:url(#linear-gradient-5);}.cls-8{fill:url(#linear-gradient-6);}.cls-9{fill:url(#linear-gradient-7);}.cls-10{fill:#ffca55;}.cls-11{fill:#78c2ff;}.cls-12{fill:#ffc655;}.cls-13{fill:#ffbc55;}.cls-14{fill:#ffa655;}.cls-15{fill:#ffd255;}.cls-16{fill:#eb4747;}.cls-17{fill:#b7ceff;}.cls-18{fill:#eea886;}.cls-19{fill:#e8e8e8;}.cls-20{fill:#303669;}.cls-21{fill:#3a3f47;}.cls-22{fill:#a77860;}.cls-23{fill:#b0b0b0;}.cls-24{fill:#444c94;}.cls-25{fill:#518afa;}.cls-26{fill:#faa146;}.cls-27{fill:#5478b3;}.cls-28{fill:#e55353;}.cls-29{fill:#5779d4;}.cls-30{fill:#434343;}.cls-31{fill:#b57433;}.cls-32{fill:#525252;}.cls-33{fill:#6e6e6e;}.cls-34{fill:#464240;}.cls-35{fill:#51578c;}.cls-36{fill:#b33636;}.cls-37{fill:#48484d;}.cls-38{fill:#5c5049;}.cls-39{fill:#fab46c;}.cls-40{fill:#fccca2;}.cls-41{fill:#d4c3bd;}.cls-42{fill:#de9673;}.cls-43{fill:#2f4563;}.cls-44{fill:#e6d3cc;}.cls-45{fill:#ded1c5;}.cls-46{fill:#bc8551;}.cls-47{fill:#23344a;}.cls-48{fill:#807066;}.cls-49{fill:#eea987;}.cls-50{fill:#214361;}.cls-51{fill:#db9c7c;}</style><linearGradient id="linear-gradient" x1="422.31" y1="388.6" x2="420.24" y2="339.01" gradientUnits="userSpaceOnUse"><stop offset="0" stop-color="#ffebe3"/><stop offset="1" stop-color="#eddad4"/></linearGradient><linearGradient id="linear-gradient-2" x1="208.84" y1="259.99" x2="270.6" y2="259.99" gradientUnits="userSpaceOnUse"><stop offset="0" stop-color="#40d5e6"/><stop offset="1" stop-color="#57f"/></linearGradient><linearGradient id="linear-gradient-3" x1="254.15" y1="294.46" x2="309.99" y2="294.46" xlink:href="#linear-gradient-2"/><linearGradient id="linear-gradient-4" x1="258.92" y1="302.58" x2="300.84" y2="302.58" xlink:href="#linear-gradient-2"/><linearGradient id="linear-gradient-5" x1="243.78" y1="268.84" x2="292.6" y2="268.84" xlink:href="#linear-gradient-2"/><linearGradient id="linear-gradient-6" x1="232.58" y1="338.87" x2="277.63" y2="338.87" gradientUnits="userSpaceOnUse"><stop offset="0" stop-color="#ff9340"/><stop offset="1" stop-color="#ffce45"/></linearGradient><linearGradient id="linear-gradient-7" x1="232.58" y1="338.87" x2="277.63" y2="338.87" gradientUnits="userSpaceOnUse"><stop offset="0" stop-color="#c97332"/><stop offset="1" stop-color="#ffce45"/></linearGradient></defs><title>explore-thumb-vector</title><rect class="cls-1" width="820" height="500"/><path class="cls-2" d="M90.79,346.4H729.52s50.29-2.46,24.29,23.51-126.09,19.78-188.14,57-52.07-17.56-133.5-20.66-330-8.27-332.3-31S63.72,346.93,90.79,346.4Z"/><path class="cls-3" d="M214.24,178.39c5.32-2.55,10.62,14.4,10.62,14.4,9,12,21.7-3.95,20.46,13.93-2.16,31.29,36,9.84,18.4,42.5s15.55,18.47,4.61,44.81,3.24,57.75-13.23,44.84c0,0-14.5-31.8-29.45-41.64s9-21.51,4.28-34.87c-6.8-19.41-23.17-18.65-11.37-39.51S196.13,187,214.24,178.39Z"/><path class="cls-4" d="M260.32,326.9c-7.14-5-15.49-40-16-60.84-.26-10.68-3.41-15.12-6.2-19.05-2.66-3.75-5-7-3.62-14.42,2.56-14.21-4.17-20.35-4.23-20.41l.77-.89c.3.26,7.31,6.59,4.62,21.51-1.25,6.95.81,9.85,3.43,13.53,2.73,3.86,6.14,8.67,6.41,19.7.53,22.36,9.07,55.39,15.49,59.91Z"/><path class="cls-5" d="M263,329.49a15.39,15.39,0,0,1-3-.32,6.58,6.58,0,0,1-5.36-4.32c-1.93-5.5,2.53-14.44,6.15-18.75a27.46,27.46,0,0,0,5.47-17.73c-.11-1.72-.28-3.32-.44-4.72-.46-4.06-.79-7,1-8.95,1.53-1.73,4.5-2.48,9.92-2.5,9.5-.05,13.26-4,16.27-7.14a17.46,17.46,0,0,1,4-3.42h0c4.73-2.58,9.75-3,11.92-.9,1,1,1.91,2.9.19,6.47a24.86,24.86,0,0,1-5.22,7c-2.19,2.24-3.64,3.72-2.88,6.67.17.69.38,1.39.58,2.09,1.47,5,3.13,10.68-5.45,14.54-1.82.81-3.47,1.47-4.94,2-6,2.35-9.59,3.77-13.67,12.37-.79,1.67-1.49,3.25-2.16,4.78C272.06,324,269.63,329.49,263,329.49Zm34.48-66.81a16,16,0,0,0-3.67,3.19c-3.18,3.32-7.12,7.46-17.13,7.51-5,0-7.77.67-9,2.1s-1.09,4.28-.67,8c.16,1.42.34,3,.45,4.77a28.21,28.21,0,0,1-5.74,18.57c-3.59,4.26-7.64,12.75-6,17.6A5.48,5.48,0,0,0,260.2,328c8.08,1.63,10.31-3.42,14-11.79.68-1.53,1.38-3.12,2.17-4.8,4.28-9,8.27-10.6,14.31-13,1.45-.57,3.1-1.21,4.89-2,7.63-3.43,6.26-8.14,4.8-13.13-.21-.71-.42-1.43-.6-2.13-.92-3.59.9-5.44,3.19-7.78a23.64,23.64,0,0,0,5-6.68c.77-1.63,1.41-3.83.06-5.11-1.79-1.69-6.32-1.23-10.55,1.08Z"/><path class="cls-6" d="M260.1,336.31l-1.18-.06c.06-1.11,1.54-27.22,12-34.86C282.45,293,286.07,284,287.8,278c2-7.12,12.39-9,12.83-9.11l.21,1.17c-.1,0-10.07,1.85-11.9,8.27-1.78,6.21-5.5,15.47-17.3,24.07C261.61,309.66,260.11,336,260.1,336.31Z"/><path class="cls-7" d="M284.06,204.73c-7.45-2.55-5.9,11.81-9.05,22.43s-35,4.64-21.64,31.25-16.92,8.89-7.87,32.11.79,48.05,10.63,41.74,5.52-35.56,15.75-39,11.9-7.53,1.77-17,26.55-18.82,17.5-37.89S292.67,207.69,284.06,204.73Z"/><path class="cls-4" d="M260.69,331.14c-.94-4-8.94-38.95-1.47-43.18,6.58-3.72,6.42-18.22,5.39-31.91-.91-12.11,14.65-17.77,15.31-18l.4,1.11c-.15.06-15.38,5.6-14.53,16.82,1,14,1.16,29-6,33-5.67,3.21-.45,31.32,2,41.88Z"/><polygon class="cls-8" points="277.63 318.69 266.99 359.05 243.22 359.05 232.58 318.69 277.63 318.69"/><path class="cls-9" d="M277.63,318.69s-23.42,4.4-23.42,40.36h-11l-10.64-40.36Z"/><polygon class="cls-10" points="416.1 193.39 365.63 193.62 365.8 230.19 365.84 237.9 373.51 230.16 416.26 229.96 416.1 193.39"/><path class="cls-4" d="M394.81,213.24a3.86,3.86,0,1,1-3.87-3.84A3.87,3.87,0,0,1,394.81,213.24Z"/><path class="cls-4" d="M407.46,213.2a3.85,3.85,0,1,1-3.86-3.84A3.85,3.85,0,0,1,407.46,213.2Z"/><path class="cls-4" d="M382.44,213.28a3.86,3.86,0,1,1-3.87-3.84A3.84,3.84,0,0,1,382.44,213.28Z"/><polygon class="cls-11" points="401.12 93.4 451.58 93.63 451.41 130.21 451.37 137.91 443.71 130.17 400.95 129.97 401.12 93.4"/><path class="cls-4" d="M422.41,113.25a3.85,3.85,0,1,0,3.86-3.84A3.85,3.85,0,0,0,422.41,113.25Z"/><path class="cls-4" d="M409.75,113.21a3.86,3.86,0,1,0,3.86-3.84A3.85,3.85,0,0,0,409.75,113.21Z"/><path class="cls-4" d="M434.77,113.29a3.86,3.86,0,1,0,3.87-3.84A3.87,3.87,0,0,0,434.77,113.29Z"/><polygon class="cls-10" points="639.22 83.37 567.47 83.7 567.71 135.7 567.76 146.66 578.66 135.65 639.46 135.37 639.22 83.37"/><path class="cls-4" d="M609,111.6a5.48,5.48,0,1,1-5.5-5.46A5.47,5.47,0,0,1,609,111.6Z"/><path class="cls-4" d="M627,111.54a5.48,5.48,0,1,1-5.5-5.46A5.48,5.48,0,0,1,627,111.54Z"/><path class="cls-4" d="M591.37,111.65a5.48,5.48,0,1,1-5.5-5.46A5.49,5.49,0,0,1,591.37,111.65Z"/><polygon class="cls-11" points="755.13 121.75 692 122.05 692.22 167.8 692.26 177.44 701.85 167.76 755.34 167.51 755.13 121.75"/><path class="cls-4" d="M728.5,146.59a4.82,4.82,0,1,1-4.84-4.8A4.82,4.82,0,0,1,728.5,146.59Z"/><path class="cls-4" d="M744.33,146.54a4.82,4.82,0,1,1-4.83-4.8A4.82,4.82,0,0,1,744.33,146.54Z"/><path class="cls-4" d="M713,146.64a4.82,4.82,0,1,1-4.84-4.81A4.82,4.82,0,0,1,713,146.64Z"/><polygon class="cls-11" points="58.98 121.58 134.74 121.93 134.49 176.84 134.43 188.41 122.92 176.79 58.73 176.49 58.98 121.58"/><path class="cls-4" d="M90.94,151.39a5.79,5.79,0,1,0,5.8-5.77A5.78,5.78,0,0,0,90.94,151.39Z"/><path class="cls-4" d="M71.94,151.33a5.79,5.79,0,1,0,5.8-5.77A5.78,5.78,0,0,0,71.94,151.33Z"/><path class="cls-4" d="M109.51,151.45a5.79,5.79,0,1,0,5.8-5.77A5.78,5.78,0,0,0,109.51,151.45Z"/><path class="cls-10" d="M330.34,197.2a8.05,8.05,0,0,0-15.11-5.57,5,5,0,0,0-.32,1.13,7.82,7.82,0,0,0-.13.8c-.32,2.47-.35,7.64,1.88,17.45,8.07-6,11.4-10,12.76-12a7.31,7.31,0,0,0,.43-.7A5.27,5.27,0,0,0,330.34,197.2Zm-9.29,1.92a5,5,0,1,1,6.44-3A5,5,0,0,1,321.05,199.12Z"/><path class="cls-10" d="M675.61,85.34l-9.1-4a1.47,1.47,0,0,1,1.18-2.7l6.43,2.8,4.64-10.29a1.47,1.47,0,0,1,2.69,1.21Z"/><path class="cls-10" d="M686,94a18.59,18.59,0,1,1,4.52-25.9A18.61,18.61,0,0,1,686,94ZM666.1,65.77a15.93,15.93,0,1,0,22.2,3.87A16,16,0,0,0,666.1,65.77Z"/><rect class="cls-12" x="277.21" y="150.2" width="24.7" height="16.91" transform="translate(37.6 -54.72) rotate(11.54)"/><polygon class="cls-13" points="275.77 164.47 289.76 157.68 299.97 169.41 275.77 164.47"/><polygon class="cls-14" points="303.35 152.84 289.14 160.69 279.15 147.9 303.35 152.84"/><path class="cls-10" d="M637.74,159.75a9.21,9.21,0,0,0-8.52,5.64,9.23,9.23,0,0,0-10.18.94c-4.9,4-2.38,7.95-2.38,7.95,3.46,8.44,20.16,12.71,20.16,12.71s10.35-13.79,7.76-22.53C644.58,164.46,644.08,159.81,637.74,159.75Z"/><path class="cls-15" d="M206.67,156.69a5.52,5.52,0,0,1-3.48,0,4.19,4.19,0,0,1-2.63-2.38,25.54,25.54,0,0,0-3.88-5.46,11.22,11.22,0,1,1,12.6-4.72,24.42,24.42,0,0,0,1,6.3c.91,2.3-.51,5-3.17,6.1Zm-10-28.39a10.3,10.3,0,0,0,.4,19.73l.13,0,.08.1a26.23,26.23,0,0,1,4.12,5.78l0,0a3.25,3.25,0,0,0,2.07,1.87,4.69,4.69,0,0,0,3.25-.15c2.2-.88,3.39-3.09,2.66-4.92h0v0a25.16,25.16,0,0,1-1-6.71v-.14l.08-.12a10.3,10.3,0,0,0-11.77-15.47Z"/><polygon class="cls-15" points="203.29 153.94 197.3 143.17 200.46 144.16 201.26 141.94 203.15 142.94 204.59 140.17 207.89 152.06 207 152.31 204.33 142.67 203.54 144.19 201.77 143.25 201.03 145.3 199.22 144.74 204.1 153.49 203.29 153.94"/><rect class="cls-15" x="203.26" y="155.39" width="7.96" height="3.21" transform="translate(-43.57 88.5) rotate(-21.87)"/><rect class="cls-15" x="201.13" y="152.28" width="10.52" height="5.16" transform="translate(-42.83 88.02) rotate(-21.87)"/><path class="cls-16" d="M750.66,260.83c0,63.34-1.8,75.74-17.7,89.93-6.23,5.55-17.68,17.1-50.74,22.85a248.07,248.07,0,0,1-36,3.29,118.35,118.35,0,0,1-16-.6,83,83,0,0,1-11.34-2c-36.32-9.1-39-40.22-23.15-66.4a150.54,150.54,0,0,1,14.06-19.25c7.78-9.18,16.12-17.33,23.67-24.94,7-7,13.26-13.57,17.84-20a50.65,50.65,0,0,0,4.79-8.16c.3-.65.59-1.29.89-1.92q1.47-3.09,3-5.93c1.91-3.55,3.85-6.8,5.73-9.71,1.49-2.32,2.94-4.43,4.29-6.29a104.68,104.68,0,0,1,8.08-10s.43-.21,1.23-.53c.42-.18,1-.39,1.57-.63l.79-.3.87-.31.87-.31,1.1-.36.69-.22.41-.13.17,0a72.16,72.16,0,0,1,18.22-3.21C724.81,194.89,750.69,205.18,750.66,260.83Z"/><path class="cls-17" d="M666.16,356.18a39,39,0,0,0,1.21,6.12c.69,1.87,4.44,6.2,2.85,10.35-1.71,4.5-9.2.16-12.26-1.21s-2.36-3.87-2.68-6.92-1.82-3.14-1.27-5.28S657.9,353,657.9,353Z"/><path class="cls-18" d="M659.34,350.76s-1.91,2.68-1.86,2.75,8.21,5,8.78,3.43a16.65,16.65,0,0,0,.64-3.13Z"/><path class="cls-17" d="M631.69,359.19a31,31,0,0,0-4.73,5.53c-2.23,3.35-8.17,3.53-8.42,8.11s8.07,4.71,12.43,3.22,5-5.95,7.67-7.07,4-2,3.82-4.21a26.88,26.88,0,0,0-1.67-5.72,18.48,18.48,0,0,1-2.61.63A21.69,21.69,0,0,1,631.69,359.19Z"/><path class="cls-19" d="M661.63,235.18s-1.67,10-3,16.53h0a39.42,39.42,0,0,1-1.35,5.45c-.39.84-3.53,4.21-7.37,8.17-6.75,6.95-15.67,15.7-15.67,15.7l-3.49-6.62s7.92-9.28,13.29-15.48c2.49-2.87,4.43-5.07,4.78-5.39,1.12-1,2.43-10.9,4.26-19a32.77,32.77,0,0,1,5.5-12.66Z"/><path class="cls-18" d="M649.89,265.33c-6.75,6.95-15.67,15.7-15.67,15.7l-3.49-6.62s7.92-9.28,13.29-15.48A11.28,11.28,0,0,1,649.89,265.33Z"/><path class="cls-18" d="M632.08,356.13l-.39,3.06a15.09,15.09,0,0,0,9.1-.14l.1-2.71Z"/><path class="cls-19" d="M693.57,279.68c.25.89-45.88,0-45.88,0s12.76-9.29,13.59-11.77S658,250.54,657.5,245.7c-.43-3.88-1.49-21.22,1.06-23.87s12.29-5.68,12.29-5.68l14,.53a21.67,21.67,0,0,1,4,1.25c1.66.77,11.12,4.13,12.65,8.86s-9.44,19.92-9.44,19.92,0,.69,0,1.81h0c0,1.49-.11,3.76-.17,6.22-.07,3.19-.13,6.69-.13,9.26A92.61,92.61,0,0,0,693.57,279.68Z"/><path class="cls-20" d="M693.58,279.68s6.27,9.22,6.36,15.51-11.14,27.37-12.83,30.38C682,334.64,668,354.19,668,354.19s-2.41-.06-9.94-3c0,0,9.31-25.82,10.49-28.5,5-11.37,7.81-19.44,6.13-21.39s-6.28-3.9-7.61-5.06-24.49,4.38-26.91,5c-6.29,1.63-3.42,12.56-2,17.46,2.32,8.2,4.36,37.82,4.36,37.82s-4.48,1.91-12,.29c0,0-14.72-53.47-15.19-58.79s-.7-14.08,35.57-20.75Z"/><path class="cls-18" d="M674.7,185.69s-12.18-2.75-9.39,12.57,5.7,16.52,13.05,13.35,6.68-13,7-17.79S678.58,185.86,674.7,185.69Z"/><path class="cls-18" d="M671.48,220.09s5.39,5.71,13.91.52c0,0-1.91-12.39-.9-18.42s-11.12,9.35-11.12,9.35c.16.08.26.66.29,1.48a16.79,16.79,0,0,1-.13,2.45C673.28,217.47,672.66,219.59,671.48,220.09Z"/><path class="cls-21" d="M684.82,201.68s-.31-4.83-2.08-5-2,1.79-2,1.79l-1.78.34s.56-4.23-1.2-5-11.4,2.33-12.82,1.09-.74-9.83,1.81-11,9.61-3.81,14.78-.31c0,0,4-.46,4.63,2.8S685.92,199.26,684.82,201.68Z"/><path class="cls-22" d="M673.53,215.47c8.79-2.71,9.45-8,9.46-8.09-2.89,5-9.33,5.64-9.33,5.64A16.79,16.79,0,0,1,673.53,215.47Z"/><path class="cls-18" d="M689,218s-6.44,12.82-16.84,12-1.77-13.71-1.3-13.83S681.51,213.5,689,218Z"/><path class="cls-19" d="M642.41,279s31.86,3.93,51.17.65l-36.89-4.61S656.47,276,642.41,279Z"/><path class="cls-18" d="M666.24,273.62l-2.37,1.21s.54,3.77,1.84,4.91l2.66-.68S667.82,274.92,666.24,273.62Z"/><path class="cls-19" d="M703.11,265.9c-.47.55-6.74,3.07-13.82,5.8h0c-9.66,3.72-20.57,7.25-20.57,7.25l-2.48-5.33s11.42-6.2,19.14-10.55c3.64-2.06,6.46-3.7,6.86-4.08,1.24-1.18,1.56-3.08.65-6.38s-3-18.49-3.25-20.27.59-6.5,5-6.73,6.69,1,6.69,1,1.11.47,1.94,11.22S704.23,264.6,703.11,265.9Z"/><path class="cls-23" d="M692,248.52h0c0,1.49-.11,3.76-.17,6.22-4.32-10.6-1.82-19.06-1.78-19.2C689.58,238.41,692,248.38,692,248.52Z"/><path class="cls-23" d="M658.61,251.71h0a39.42,39.42,0,0,1-1.35,5.45c-1.48-7.15-.15-16.3-.15-16.3A91.09,91.09,0,0,0,658.61,251.71Z"/><path class="cls-18" d="M689.29,271.7h0c-9.66,3.72-20.92,7.36-20.92,7.36l-2.13-5.44s11.42-6.2,19.14-10.55C685.38,263.07,688.18,264.43,689.29,271.7Z"/><polygon class="cls-24" points="665.55 279.38 620.27 278.71 643.13 290.32 665.55 279.38"/><polygon class="cls-20" points="643.13 290.32 665.55 281.63 665.55 279.38 641.36 288.1 643.13 290.32"/><path class="cls-18" d="M664.38,274.91s-2.83-.44-4.78-.9c-1.52-.35-5.28.14-6.24,1.11s-4,7.73-4.58,8.15.3,1.36,1.31.88c0,0,.93,3,3.22,1.86s3.85-3.53,5.05-4,8.2-2.57,8.2-2.57S666.18,274.19,664.38,274.91Z"/><path class="cls-18" d="M654.05,274.67a20.49,20.49,0,0,0-2.29,1.27c-.47.39-2.4,1.83-2.86,2.17s.7,1.3,4.14-.19S654.05,274.67,654.05,274.67Z"/><polygon class="cls-20" points="643.13 290.32 629.66 253.54 586.24 254.25 599.08 288.14 643.13 290.32"/><path class="cls-25" d="M615.77,269.81c1.32,2.65.92,5.53-.9,6.44s-4.36-.5-5.69-3.15-.92-5.53.9-6.44S614.44,267.16,615.77,269.81Z"/><path class="cls-18" d="M680.75,196.45c.16-1.35,2.83-1.85,3,.18s-1.21,5.58-2.23,5.23S680.53,198.31,680.75,196.45Z"/><path class="cls-26" d="M412.94,343c-.31,2.16-13.25,11.22-15.79,13a27.59,27.59,0,0,1-6.92,3.28h0c-7,1.84-51.09,15-51.09,15a6,6,0,0,0-.44-1.34c-1.65.66-3.34,1.09-4.41,1.42-1.64.51-14.67.92-17.33,1.44s-8,1.33-10.16-.72,1.34-6.46,4.31-7.59S325,366,326.9,365.84s4.51-.92,5.75-.51c.38.13,2.1-.38,4.27-1.13-.05-.8-.06-1.3-.06-1.3l11.57-3.34-2.15-20.48s5-19,25.15-4.5c0,0,4.49,1.32,6,1.73a1.6,1.6,0,0,0,.51,0c3.07-.23,16.26-4.22,21-4.22,5.13,0,6.77-.31,8.61.62S413.24,340.82,412.94,343Z"/><path class="cls-26" d="M392.33,375.07c-2.15,2.05-7.48,1.23-10.15.72s-15.69-.93-17.33-1.44-4.72-1.23-6.87-2.67a7.86,7.86,0,0,0-1.15-.5h0l-3.26,2.35-45.28-14.41A16.39,16.39,0,0,1,302,356c-2.36-2.05-15.48-10.87-15.79-13s3.49-9.33,5.33-10.25,3.49-.62,8.62-.62,20,4.62,21.53,4.21a22.81,22.81,0,0,0,3.52-1.68c1.64-.89,3.18-1.81,3.18-1.81,22-9.83,24.47,6.26,24.47,6.26l-1.3,19.86s1.83.91,4.22,2l10.92,3.08-1.43,1a2.94,2.94,0,0,0,1.23.23c1.23-.41,3.79.3,5.74.51s12.82.51,15.79,1.64S394.48,373,392.33,375.07Z"/><path class="cls-27" d="M325.2,334.63c1.52.11,11.78,6.05,14.21,7.47-3.7-1.93-17.73-5.79-17.73-5.79A22.81,22.81,0,0,0,325.2,334.63Z"/><path class="cls-27" d="M378,336.32s-17.68,4.29-20.91,6.09c.15-.11,9.32-7.08,14.13-8,0,0,4.73,1.5,6.27,1.91a1.6,1.6,0,0,0,.51,0Z"/><path class="cls-18" d="M392.33,375.07c-2.15,2.05-7.48,1.23-10.15.72s-15.69-.93-17.33-1.44c-.47-.15-1.06-.31-1.71-.5h0a19.45,19.45,0,0,1-5.15-2.17,7.86,7.86,0,0,0-1.15-.5l8.19-5.91.24-.17a2.94,2.94,0,0,0,1.23.23c1.23-.41,3.79.3,5.74.51s12.82.51,15.79,1.64S394.48,373,392.33,375.07Z"/><path class="cls-4" d="M392.33,375.07c-2.15,2.05-7.48,1.23-10.15.72s-15.69-.93-17.33-1.44c-.47-.15-1.06-.31-1.71-.5h0a8.63,8.63,0,0,0,1.89-8.57l.24-.17a2.94,2.94,0,0,0,1.23.23c1.23-.41,3.79.3,5.74.51s12.82.51,15.79,1.64S394.48,373,392.33,375.07Z"/><path class="cls-28" d="M329.69,339.16a.09.09,0,0,1,0,.12C329.47,339.43,329.51,339.37,329.69,339.16Z"/><path class="cls-29" d="M389,315.18c-.17-.34-9.51-15-12-21.74s-8.62-9.77-11.49-10.73l-4.77-1.56-7.26-2.34h-12s-4.15,1.39-8.55,2.94h0c-4.06,1.42-8.33,3-9.78,3.7-3,1.5-8.06,12.23-9.09,13.46s-8.91,15.85-10,21.47c-.88,4.36,25,17.14,25.72,18.78.82-.91,4.6-4.53,4.6-4.53s-1.21-.75-2.91-1.87c6.93.31,23.89-.29,26.32-.16a11.82,11.82,0,0,0,1.56,0h0c.75.54,5.61,4.83,5.61,4.83s12-5,17.46-10.53C390.15,319,389.82,316.93,389,315.18Zm-68,9.73c-2.57-3.08-6.1-4.94-5.21-6.31s8.41-14.35,8.41-14.35,3.9,8.54,5,13,1,6.48.55,7.87a20.26,20.26,0,0,0-1.12,5.77C325.49,328.78,322.11,326.32,320.94,324.91Zm52.89-1.47c-1,1.14-5,3.67-8.56,5.75-.27-2.48-.68-6.38-.73-7.79-.07-2.11.82-8.2,1.92-10.52s1.84-8.69,1.84-8.69,9.06,12.31,10.5,13.61S377.23,319.58,373.83,323.44Z"/><path class="cls-18" d="M348.84,245.93s9.36,1.48,7.93,16.11-9.68,13.44-10.23,13.43-8.29.27-8.89-17.61C337.65,257.86,337.38,244.65,348.84,245.93Z"/><path class="cls-18" d="M356.92,257.91s1-1.09,1.4,0-1.4,6.05-1.46,6.28c0,0-.19.43-.43.2S356.92,257.91,356.92,257.91Z"/><path class="cls-18" d="M337.9,257.73s-1-1.12-1.4,0,1.27,6.08,1.34,6.31c0,0,.18.43.43.2S337.9,257.73,337.9,257.73Z"/><path class="cls-30" d="M356.91,260.16,355.58,262a36.71,36.71,0,0,0-.18-4.54c-.22-.62-.55-2.5-.72-2.94s-8-2.65-15,.64c0,0,.31,2.82-.36,3.07s-.34,4.6-.34,4.6l-1.1-1.24s-1.68-11.26-1.27-12.44,1.75-8.23,16-4c0,0,4.44-.94,5.33,2.12S356.91,260.16,356.91,260.16Z"/><path class="cls-31" d="M335.08,353.76s-14.32-8.58-20.58-9.93c-5.91-1.28-8.07-3.49-8.07-3.49s9.4,0,15.66,4.44C326.34,347.8,335.08,353.76,335.08,353.76Z"/><path class="cls-31" d="M347.8,359.74s24.91-13.08,35.08-15.91c5.83-1.63,8.07-3.49,8.07-3.49s-15.4,1.5-24.77,7.14C361.72,350.17,347.8,359.74,347.8,359.74Z"/><path class="cls-18" d="M338.7,372.93c-1.65.66-3.34,1.09-4.41,1.42-1.64.51-14.67.92-17.33,1.44s-8,1.33-10.16-.72,1.34-6.46,4.31-7.59S325,366,326.9,365.84s4.51-.92,5.75-.51c.38.13,2.1-.38,4.27-1.13C337,365.5,338.7,372.93,338.7,372.93Z"/><path class="cls-26" d="M347.8,371.69l24.49-7.24L367.45,363S347.88,370.06,347.8,371.69Z"/><polygon class="cls-31" points="347.8 371.69 359.26 368.2 351.32 372.81 347.8 371.69"/><path class="cls-32" d="M339.93,342.41l-.52-.31A4.46,4.46,0,0,1,339.93,342.41Z"/><path class="cls-4" d="M334.29,374.35c-1.64.51-14.67.92-17.33,1.44s-8,1.33-10.16-.72,1.34-6.46,4.31-7.59S325,366,326.9,365.84s4.51-.92,5.75-.51A6.74,6.74,0,0,0,334.29,374.35Z"/><path class="cls-32" d="M326.19,340.34l-3.77-21.46,48.79-1.13-3.15,21.12s-15.57,5.7-20.85,9C347.21,347.9,333.85,342.41,326.19,340.34Z"/><path class="cls-33" d="M350.08,331.82a2.77,2.77,0,1,1-2.74-3.21A3,3,0,0,1,350.08,331.82Z"/><path class="cls-18" d="M353.52,278.85s0,0,0,0c-.58-1.31-.3-7.66-.3-7.66s-11.92-3-11.57-.72-1,8.65-1,8.65l-6.11,2.1s6.51,17.48,14,15.23,10.32-15.87,10.32-15.87Z"/><path class="cls-22" d="M341.86,273.08a6.94,6.94,0,0,0,5.2,2.42c2.19,0,3.69-.54,5.87-2.67,0,0-.87,4-5.86,4.34C347.07,277.17,343.51,277.69,341.86,273.08Z"/><path class="cls-34" d="M547.05,141.11s6.92-.73,9.42,6,4.84,8.88,5.14,12.39c1.18,14.21,7.82,11,5.95,19.19s-3.15,9.43-3.15,9.43L548.54,185l-16.07.05s6.29-3.14,4.89-9.83-4.89-17.65-2.92-25.11S542.91,141.68,547.05,141.11Z"/><path class="cls-16" d="M542.67,360.67s-5,6.84-4.27,7.94,6.14,1.26,9.44,0,3.38-9.4,4.87-12.9c.63-1.46-.71-5.79-2.59-6.1a8.53,8.53,0,0,0-4.09.67S548,355.26,542.67,360.67Z"/><path class="cls-18" d="M546,350.28a48.48,48.48,0,0,1-1,5.51c-.63,2.28-4,7.47-3.86,8.1s4.41,1.2,6.14-.42,3.06-6.32,3.22-9.17a15,15,0,0,0-.39-4.69S547.68,348.55,546,350.28Z"/><polygon class="cls-16" points="552.71 355.71 552.71 362.98 551.77 362.98 551.77 357.36 552.71 355.71"/><path class="cls-16" d="M555.68,360.67s-5,6.84-4.26,7.94,6.13,1.26,9.43,0,3.38-9.4,4.88-12.9c.62-1.46-.72-5.79-2.6-6.1a8.53,8.53,0,0,0-4.09.67S561,355.26,555.68,360.67Z"/><path class="cls-18" d="M559,350.28a46.15,46.15,0,0,1-1,5.51c-.63,2.28-4,7.47-3.85,8.1s4.4,1.2,6.13-.42,3.07-6.32,3.23-9.17a15.2,15.2,0,0,0-.4-4.69S560.69,348.55,559,350.28Z"/><polygon class="cls-16" points="565.73 355.71 565.73 362.98 564.78 362.98 564.78 357.36 565.73 355.71"/><path class="cls-18" d="M533.52,237.06s-3.76,20.73-4.78,25.92-3.86,30.3-4.16,34.57,9.27,24.81,9.87,26.23c10,23.72,11.19,29.09,11.19,29.09s3.29,2.06,4.81-.4c.46-.75-6.17-28-7.27-35.5-1-7-3.66-17.85-2.94-20.31s7.22-36.41,8.44-37.83,3.05.81,3.76,4,2.24,30.41,3.15,33.87.2,15.15.71,21,2.63,33.42,2.63,33.42,4.1.74,4.5.08,4-30.58,4.06-37.59.21-16.69.4-19.73c1.89-29.08,5.45-32.88-.77-53.81C551.9,188.88,533.52,237.06,533.52,237.06Z"/><path class="cls-26" d="M533.52,237.06s-3.76,20.73-4.78,25.92-3.86,30.3-4.16,34.57,8.94,24.81,9.15,26.34,7.82,23.36,7.82,23.36,7.7-.13,9.8-2.13c.42-.4-7.07-20.6-8.17-28.15-1-7-3.66-17.85-2.94-20.31s7.22-36.41,8.44-37.83,3.05.81,3.76,4,2.24,30.41,3.15,33.87.2,15.15.71,21-.56,26.85-.56,26.85,10.08.53,10.49-.13,1.16-23.8,1.26-30.81.21-16.69.4-19.73c1.89-29.08,5.45-32.88-.77-53.81C551.9,188.88,533.52,237.06,533.52,237.06Z"/><path class="cls-16" d="M568.63,244c.58-.24-4.12-15.81-5.06-20.46-.84-4.2-3.71-8-.9-15.19a26.58,26.58,0,0,0,1.49-8.93s4.29,9.45,4.69,11.89-14.81-2-15-1.66c-.4.64-.85,4.76-.85,6.19,0,1.17,22.1,6.39,24.71,1.77.75-1.31-4.05-26.42-7.15-29.77-5.08-5.49-18.44-10.17-18.44-10.17s-3.66-2-10.1.07-15.46,8.27-17,9.9-7.79,26.14-8.34,29.32c-.51,3-.31,9.27,6.51,8.47l18.41-4.22-1.15-5.61-13.79,1.09c-2.82.48-1.47-2-1.11-3.36s3.81-13.83,3.81-13.83c-.2,3.46,2.41,14.81,3.77,18.74s-1.64,25-1.85,27.28C531.24,245.56,542.32,254.66,568.63,244Z"/><path class="cls-18" d="M555.11,178.86s-4.55,9.37-8.34,12.12c0,0-6.82-10.23-6.48-12.59C540.29,178.39,547.86,175,555.11,178.86Z"/><path class="cls-18" d="M555.27,210.46a8.62,8.62,0,0,1-2.66-1.61c-.56-.77-2.43-1.22-3.81-.81s-.61,6.34-.61,6.34l7.28.94Z"/><path class="cls-18" d="M542.08,215a27.41,27.41,0,0,0,.54-4.54c-.17-.71,1.24-1.42,1.44.33s.3,2.86.3,2.86Z"/><path class="cls-35" d="M545.11,217.65l5.31-.22a1.28,1.28,0,0,0,1.22-1.26l.14-11.61a1.28,1.28,0,0,0-1.32-1.29l-6.34.21a1.28,1.28,0,0,0-1.24,1.37l.91,11.62A1.29,1.29,0,0,0,545.11,217.65Z"/><path class="cls-18" d="M542,215.3s-.1-1.09,2-2.09c2.78-1.32,6.48-2.67,7.11-2.32.91.5.44,1.19-1.31,1.77l-2.33.76s3.43-.32,4.2.09.81,1.36.25,1.51a13.69,13.69,0,0,1-1.89.25s1.45.06,1.6.64.16,1.05-1.22,1.31a1,1,0,0,1-.46,1.7,24.15,24.15,0,0,1-5.22,1.48,58,58,0,0,1-8.63.11l2.46-4.15a7.11,7.11,0,0,0,2.31-.22C542.1,215.71,542,215.3,542,215.3Z"/><polygon class="cls-16" points="540.41 215.64 541.56 221.25 529.83 223.94 529.37 216.51 540.41 215.64"/><path class="cls-16" d="M553.83,209.69a14.85,14.85,0,0,0-.85,6.19,68.21,68.21,0,0,0,12.93,3.27V212Z"/><path class="cls-36" d="M541.56,221.25l-8.23,4.57c.06-.95.1-1.86.12-2.71Z"/><path class="cls-36" d="M563.17,221.86c-6.6-2.62-9.24-5-10-5.73l-.23-.25,9.37,2.73h0C562.59,219.74,562.89,220.81,563.17,221.86Z"/><path class="cls-18" d="M548,145s9.17,1.33,7.83,14.86-9.44,12.47-10,12.46-8.12.28-8.77-16.24C537,156.1,536.73,143.88,548,145Z"/><path class="cls-18" d="M552,169.94s-.57,7,.78,9.15-1.15,5-6.34,4-4.88-3.92-4.88-3.92a21.39,21.39,0,0,0,1-7.82C542.2,167.86,552,169.94,552,169.94Z"/><path class="cls-34" d="M546.91,149.93s4.29,4.5,6.28,6.78,2.22,6.69,2.22,6.69,3.35-4.09,2-8.86-4.72-14-13.12-11.2-8.71,15.4-7.73,21.62C536.51,165,540.29,151.22,546.91,149.93Z"/><path class="cls-22" d="M543.3,171.72a8,8,0,0,0,7.71-.88,5,5,0,0,1-3.86,2.49A3.79,3.79,0,0,1,543.3,171.72Z"/><path class="cls-34" d="M542,174.18s-12.62,11.23-9.35,18.23c2.8,6,12.71,2.31,11.07-3.95A70.64,70.64,0,0,1,542,174.18Z"/><path class="cls-37" d="M545.4,205.71a.79.79,0,1,1-.79-.78A.79.79,0,0,1,545.4,205.71Z"/><polygon class="cls-38" points="204.13 361.65 194.93 300.42 196.7 300.15 205.91 361.38 204.13 361.65"/><polygon class="cls-38" points="192.89 361.65 183.69 300.42 185.46 300.15 194.67 361.38 192.89 361.65"/><polygon class="cls-38" points="137.52 361.65 135.74 361.38 144.95 300.15 146.72 300.42 137.52 361.65"/><path class="cls-39" d="M197.81,301,205,225.17s-12.61-1.65-20.23-1.25L173.33,301Z"/><rect class="cls-39" x="173.33" y="297.19" width="24.48" height="3.86"/><path class="cls-39" d="M157.31,298l-3.82-72.31s31.92-3.46,51.53-.47Z"/><path class="cls-40" d="M182.81,202.23s4.93-14.46-4.48-18.94-17.39,2-18.9,5.5-1.11,9.88.17,14.33,1.1,11.21-1.69,13.47-6.26,6-6.09,13.68c.11,4.74,18.68-12.14,18.68-12.14Z"/><path class="cls-41" d="M170.26,357.79s-.3,10.22,1.16,10.83,7-2.94,9.42-6.45-3.05-11.69-4-16.2c-.38-1.89-4.67-5.29-6.76-4.32a10.2,10.2,0,0,0-3.62,3.47S171.83,348.77,170.26,357.79Z"/><path class="cls-42" d="M166.51,345.12a56.79,56.79,0,0,1,2.74,6.19c.93,2.71,1.11,10.2,1.69,10.72s5.22-1.81,5.83-4.61-1.25-8.4-3-11.35a18.59,18.59,0,0,0-3.6-4.42S167,342.27,166.51,345.12Z"/><polygon class="cls-41" points="176.88 345.97 181.86 353.23 180.92 353.87 177.07 348.26 176.88 345.97"/><path class="cls-42" d="M159,265.74s2.43,4.1,0,7.09-18.78,11.2-18.66,15.95,3.11,12.16,4.19,14,5,9.7,7.11,14.28,14,26.45,16.32,31.38.9-19.73.9-19.73l-11.93-35,27.87-27.15S181.41,259.13,159,265.74Z"/><path class="cls-43" d="M169.59,219.43s-7.73,1.71-10.8,3.51-9.88,10-9.88,13.59,29.8,6.86,29.8,6.86L184.36,264s15.06-3.68,16.86-6.72-5.94-24.75-7-29.33-6.71-7.65-13-8.53A43.06,43.06,0,0,0,169.59,219.43Z"/><path class="cls-18" d="M187.86,266.42s-.53,3.52.9,5,8,10.21,4.54,18.77c-3.21,7.86-9.44,7.71-9.44,7.71h-9.65s2.8,14.15,1.9,23.48S171,352,170.86,353.1s-4.08,4.44-5.24,2.73c0,0-.11-12.82-.74-17.66s-3.3-24.21-4.11-27.08-5.55-11.57-5.55-12.47-4.65-14.93,5.49-18.52S174.42,266.49,187.86,266.42Z"/><path class="cls-44" d="M160.82,365.72s-6.66,7.76-5.91,9.16,7.28,2.1,11.38.9,5-11,7.11-15.08c.9-1.7-.3-7-2.54-7.6a10.18,10.18,0,0,0-5,.42S167.71,359.7,160.82,365.72Z"/><path class="cls-18" d="M165.87,353.52a56.69,56.69,0,0,1-1.77,6.54c-1,2.69-5.55,8.62-5.42,9.39s5.2,1.87,7.44.08,4.3-7.32,4.77-10.73a18.21,18.21,0,0,0,0-5.7S168,351.59,165.87,353.52Z"/><polygon class="cls-44" points="173.41 360.7 172.71 369.47 171.57 369.38 172.11 362.6 173.41 360.7"/><path class="cls-43" d="M193.3,290.21c-3,8-9.44,7.71-9.44,7.71h-9.65s-4-6.37-13.87-7.47a29,29,0,0,0-7.43.18h-.1c-13.09,1.94-10.56,6.75-10.52,6.87-1.09-2.65-2.23-6.88-2-9.15,1.26-10.36,16.23-12.54,18.66-15.53s0-7.09,0-7.09c22.42-6.61,25.8.89,25.8.89,1-.13,3.5-1.58,4.57-1.59,0,0,1.12,2.45,1.91,4.67C192,271.66,196.6,281.57,193.3,290.21Z"/><polygon class="cls-45" points="184 233.16 187.32 264.01 143.65 264.01 140.33 233.16 184 233.16"/><rect class="cls-45" x="183.5" y="261.24" width="7.29" height="2.78"/><rect class="cls-46" x="113.55" y="264.01" width="120.28" height="4.2"/><path class="cls-18" d="M174.42,185.76s9.79,2.89,8.39,16.47-7.79,12.88-8.39,13-8.18.6-10.58-15.87S174.42,185.76,174.42,185.76Z"/><path class="cls-18" d="M179.08,212.71s-.51,4.5.35,7.29-11.39,2.88-11.39.58c0-2.62,1.26-4.8.08-9.27S179.08,212.71,179.08,212.71Z"/><path class="cls-40" d="M171.9,191.81s5.31,8.46,10.91,10.42c0,0,3.05-14.19-9.57-17.16S162.6,199.4,163.54,204A37.56,37.56,0,0,1,171.9,191.81Z"/><path class="cls-22" d="M169.57,213.29a6.63,6.63,0,0,0,8.83.42s-.41,2.57-4,2.91S169.57,213.29,169.57,213.29Z"/><path class="cls-47" d="M164.77,190.54s2.79-5.42,7.52-5.66,7.53,3.85,7.53,3.85a8,8,0,0,0-7.52-4.61C166.61,184.12,164.77,190.54,164.77,190.54Z"/><path class="cls-18" d="M180.68,219.36s-.17,9.39-7.62,9.67-5.9-9-5.9-9S172.61,217.81,180.68,219.36Z"/><rect class="cls-48" x="230.75" y="268.21" width="3.09" height="96.45"/><rect class="cls-48" x="113.55" y="268.21" width="3.09" height="96.45"/><path class="cls-18" d="M478.32,183s9.57,2.81,9,15.82S478.32,183,478.32,183Z"/><path class="cls-18" d="M477.44,183s.74,1-.18,7.48.82,9.18,1,11.87,3.37,20.09,3.46,20.86.51,10,1.74,12.49,10.29,16.38,10.41,17.08,4.4-2.43,4.4-2.43-8.13-16.92-8.66-18.59c-.66-2.07-2.66-7.2-2.78-9.89-.3-6.56.29-21.8.06-25.12C486.49,190.5,481.59,184,477.44,183Z"/><path class="cls-49" d="M489.64,238.52s1.42,3.13,2.27,3.32,1.84,1.24,2.56,1.56,3,.49,3.61,1.09a22,22,0,0,0,1.76,2.77c.56.43,1.8,1.19,1.42,1.66s-1.68.1-1.68.1a.91.91,0,0,1,.28.95c-.4,1-1.08,1.05-1.08,1.05s.22.76-.06,1.14a1.83,1.83,0,0,1-1.26.86,1.76,1.76,0,0,1-.58,1,1.54,1.54,0,0,1-1.51.25s-.67.93-1.3.75a5.75,5.75,0,0,1-1.43-.91,21.49,21.49,0,0,1-4.7-7.19,25.75,25.75,0,0,0-3.14-6.07Z"/><rect class="cls-50" x="476.39" y="215.48" width="26.96" height="44.99" transform="translate(366.14 -292.4) rotate(50.96)"/><path class="cls-51" d="M499.41,248.6s-2.71-3-4.06-2.95-.43,1.2-.43,1.2-.89-1.14-1.85-.54.19,1.88.19,1.88a1.13,1.13,0,0,0-1.62.27c-.71.95.48,1.8.48,1.8s-1.79-.27-1.41,1.19a6.4,6.4,0,0,0,3.31,3.67s.74.21,1.37-.76a1.55,1.55,0,0,0,2.12-1.29s2-.45,1.34-2A1.39,1.39,0,0,0,499.41,248.6Z"/><path class="cls-40" d="M469.58,145s-13.84-1.15-13.46,13.41,2.68,16.74,0,27,13.49-5.84,13.49-5.84Z"/><path class="cls-49" d="M454.5,234.93s-5.1,6.49-6.9,10.79-4.79,13.71-4.39,21,2.79,21,2.09,24.08-1.39,9.49-2.14,11.69-3.75,8.59-4.05,15.19,4.2,35.57,4,38.27,5.09,1.1,5.09,1.1,1.8-26.18,2.8-30.68,2.2-19.78,3.1-20.88,3.36-12.49,3-14.29,9.82-28.78,10.42-34.17,15.63-22.11,15.63-22.11A46.73,46.73,0,0,0,454.5,234.93Z"/><path class="cls-49" d="M478.82,234.93a30.59,30.59,0,0,0,.56,3.72c.3,1,7.19,26.48,7.89,36.27a192.33,192.33,0,0,0,2.8,20.19,43.35,43.35,0,0,1-.9,10.89c-.6,1.8,3,44.27,3.3,45.27s-2.4,1.29-4.3,1-11.49-31.17-10.89-36.37,1.2-16.27-.5-20.78S459.79,258,459.69,256,453.08,219.62,478.82,234.93Z"/><path class="cls-49" d="M448.11,353.88a21.35,21.35,0,0,0,1,4.39c.54.94,2,5.73,2.69,6.63s2.15,7.61,0,8.42-7.22,2.15-8.92-.54a11.08,11.08,0,0,1-1.66-7.44c.27-2.06,2.31-11.52,2.29-12.45S448.11,353.88,448.11,353.88Z"/><path class="cls-4" d="M451,363s.23,5.23-3.71,5.23-5.69-4.76-5.69-4.76-1.35,2.34,0,7.31,6.94,3.94,8.19,3.76S457,372.82,451,363Z"/><path class="cls-4" d="M492,349.18s2.79,5,4.44,6c2.07,1.26,6.07,5.3,7.47,5.48s6.42,1.08,5.45,3.92c-.79,2.32-12.78,2-14.13.83s-5.4-5.35-7-5.26-1,6-1,6h-1.77s-.62-5.78-.69-6.77c-.22-2.94,1.88-5.11,2-6.78s.19-2.93.19-2.93Z"/><path class="cls-49" d="M503.55,360.53s-4,1.36-7-.39-8.87-4.4-10.94-4.42c0,0,1.13-3.44,1.15-3.83s.15-2.19.15-2.19l5.1-.82s3.31,4.86,4.77,6A82.66,82.66,0,0,1,503.55,360.53Z"/><path class="cls-29" d="M483.2,234.48s1.42,5.92,1.95,7.64,3.89,28.47,4.72,45.19c0,0-20.16,7.65-47.89,6.37,0,0-.67-30.72,1.87-39.42s7.17-16.82,10.65-19.33C457.59,232.7,483.2,234.48,483.2,234.48Z"/><path class="cls-19" d="M486.67,199.47c-.23,3.53-1.67,5.78-2,7.05s0,4.2-.38,7.12-1.49,16.87-1.12,20.84-27.26,2.18-29.36,1c0,0,4.65-8.33,4.78-11.77,0-1.19.75-4.88-1.2-7.57-1-1.43-2.94-6-4.84-9.27h0c-.74-1.29-1.51-2.57-2.05-3.52h0a13.15,13.15,0,0,1-1.1-2.73s-1.23-15.28,2.14-17a17.23,17.23,0,0,1,8.47-2.17,23.69,23.69,0,0,0,5.47-.83l7.72.83a17.34,17.34,0,0,0,4.68,1.42c1.94.15,4.32,4.39,5.5,7.45C484.38,192.82,486.89,196,486.67,199.47Z"/><path class="cls-18" d="M455.76,182s-6.1.5-8.4,6.12-2.11,11.31-2.6,13.39-1.23,14.08-1.75,15.86A99,99,0,0,0,440.28,234c-.4,6.66.59,20.69.59,20.69l3.39-1.64s3-20.81,4.32-25.21c1.11-3.77,1.11-10.17,1.74-12.48s4.47-16.21,5.08-17.62C456.35,195.61,461,181.93,455.76,182Z"/><path class="cls-18" d="M468.22,146.44a11.77,11.77,0,0,1,13.51,9.31,28.79,28.79,0,0,1-.38,4.5c-.37,2,2,7.51,1.6,7.85a12.75,12.75,0,0,1-2.26.9s-1.29,6.47-3.49,6.67-10.68-.57-15.47-7.88S454.37,148.71,468.22,146.44Z"/><path class="cls-18" d="M473.92,173.16s-.17.91-.33,2.24c-.08.68-.16,1.47-.21,2.31-.13,2.32-.06,5,.73,6.71,0,0-4.31,2.62-8.91-3.79,0,0,.45-7.94-2.19-12.17S473.92,173.16,473.92,173.16Z"/><path class="cls-40" d="M481.73,155.75s-5.17,4.46-10.64,5.86-8.36,7.55-8.36,7.55-9.68-9.65-3.84-19S481.72,145,481.73,155.75Z"/><path class="cls-22" d="M473.59,175.4c-.08.68-.16,1.47-.21,2.31a24.16,24.16,0,0,1-7.48-5.55A27.56,27.56,0,0,0,473.59,175.4Z"/><path class="cls-40" d="M470.09,161.93s-5.6,15-4.92,18.66c0,0-3-.51-8.24,1.11C456.93,181.7,459.48,154.86,470.09,161.93Z"/><path class="cls-18" d="M463.3,181.08s1.84,11.28,8.66,10,1.65-9.54,1.65-9.54S470.58,179,463.3,181.08Z"/><path class="cls-18" d="M444.34,252.51a30.62,30.62,0,0,0,1.38,3.58c.41.88,1,6.79,1,7.55s-.44.3-.69-.1c-.14-.24-.68-2.26-1.14-3.32-.39-.89-.69-1.21-.83-.9a19.65,19.65,0,0,0,.33,5.73c.47,1.6.38,5.38-.51,4.9s-3.41-7.1-3.44-9.66a50.92,50.92,0,0,1,.37-5.67Z"/></svg>