<svg xmlns="http://www.w3.org/2000/svg" viewBox="0 0 500 500"><defs><style>.cls-1{fill:#fff;}.cls-2{fill:#e48868;}.cls-3{fill:#ece0d3;}.cls-4{fill:#ebc4b6;}.cls-5{fill:#dc5955;}.cls-6{fill:#393762;}.cls-7{fill:#efc33b;}.cls-8{fill:#cfb199;}.cls-9{fill:none;stroke:#e8a12b;stroke-linecap:round;stroke-linejoin:round;stroke-width:0.5px;}.cls-10{fill:#c74749;}.cls-11{fill:#e8a12b;}.cls-12{fill:#464473;}.cls-13{fill:#7fbbf7;}.cls-14{fill:#639bda;}.cls-15{fill:#49478a;}.cls-16{fill:#ba745d;}.cls-17{fill:#b77053;}.cls-18{fill:#734e4f;}.cls-19{fill:#de6879;}.cls-20{fill:#c55469;}.cls-21{fill:#4e587f;}.cls-22{fill:#454f78;}.cls-23{fill:#a34745;}.cls-24{fill:#a9b3c0;}</style></defs><title>login-thumb-vector</title><g id="BACKGROUND"><rect class="cls-1" width="500" height="500"/></g><g id="OBJECTS"><path class="cls-2" d="M68.12,158.82l1.73,28.64S68.62,198.89,67.9,208c-.11,1.4-.16,2.76-.16,4.11,0,7.38,7.57,10.63,9,0,1-7.61,2-14.5,2.58-15.76.94-2.08,2.66-21.16,4.42-33.1C78,161.9,73.78,160.33,68.12,158.82Z"/><path class="cls-3" d="M67.75,212.06c0,7.38,2.54,14.12,2.66,21.78l3.54.87s1.36-12,2.76-22.65Z"/><path class="cls-4" d="M83.39,165.42c.11-.76.21-1.5.32-2.22-5.71-1.3-9.93-2.87-15.59-4.38l.32,5.25C73.4,164.69,78.41,165,83.39,165.42Z"/><path class="cls-5" d="M65.23,137a34.59,34.59,0,0,0-1.2,5c-.65,4.75,3.34,16,3.34,16l1.07,6.17,15,1.35c.66-4.55,2.13-11.58,2.25-13.24a38.53,38.53,0,0,0,0-8.63c-.23-2.17-.5-4.43-.78-6.58Z"/><path class="cls-6" d="M74.94,59.4C66.82,62.32,62,71.74,63.28,80.28S71,96.07,78.84,99.6a17.57,17.57,0,0,0,9.48,1.75,9.48,9.48,0,0,0,7.59-5.42c1.21-3,.36-6.49-1-9.46S91.79,80.7,91,77.53c-1.22-5,.15-10.76-2.79-15C85.41,58.56,79.54,57.75,74.94,59.4Z"/><path class="cls-2" d="M79.08,89.3l3-6.74s2.53.69,3.64-.39c.42-.4.84-2.56,1.06-5.25l.06-1c0-.35,1.41.59,1.42.23,0-.72-1.34-2.75-1.35-3.49-.06-3.39-.55-6.68-1.82-7.92-2.9-2.84-13.06-3.25-14.44,1.68a14.25,14.25,0,0,0,4,14.32l-2.74,7Z"/><path class="cls-6" d="M87.37,67.38c-.78-3.35-6.12-.73-7,1a7.61,7.61,0,0,0-.69,3.39c0,2.25.27,4.5.07,6.74a8.58,8.58,0,0,1-2.88,6C73.77,87,66.69,86.06,67,81.66A11.82,11.82,0,0,1,68.68,77c.16-.28,1.51-1.95,1.4-2.22,0,0-4-10.45,5-12.25A37.9,37.9,0,0,1,80,61.82a7.16,7.16,0,0,1,7.4,5.56Z"/><path class="cls-7" d="M68.12,88.7s-6.29,3-9.92,7.54S54.56,129.08,56.28,130s10.16,1.82,10.69,1.52,0-8.69,0-8.69Z"/><path class="cls-3" d="M66.83,126.94l-3.44,6.89a3.5,3.5,0,0,0,.57,3.95h0l.07,4.15,21.53,1.21,1.82-4.07,1.43-.94a3.51,3.51,0,0,0,1.48-3.64l-4-18.88a72.71,72.71,0,0,0,2.32-8.9c.38-2.91-9.06-17.64-10.4-19.42s-6.69-2.1-9,0-4.78,8.9-5.3,10.84S66.83,126.94,66.83,126.94Z"/><path class="cls-3" d="M74.29,92.53c2.13-1.38,9.32,3,6.94,14.51s-2.81,14.87-2.81,14.87,3.42,3.28,1.4,6.49,3,2.79.88,6.36l1.24,8.18-4.11,4.57-3.25-9.67a4.42,4.42,0,0,1-2-5c.74-3.68-4.31-5.54-3.61-10.19S63.05,99.74,74.29,92.53Z"/><path class="cls-8" d="M76,141.91h0a.3.3,0,0,1-.3-.31c0-1.54-.53-2.08-1.68-3.15l-.23-.21c-.17-.16-.36-.31-.54-.46a4.67,4.67,0,0,1-1.46-1.69,4.75,4.75,0,0,1,0-2.67c0-.22.09-.44.12-.67a7.61,7.61,0,0,0-.75-4.45A15.71,15.71,0,0,0,70,126.56a8.56,8.56,0,0,1-1.93-5.82L67.41,105a.3.3,0,0,1,.29-.31.29.29,0,0,1,.32.29l.67,15.77a7.94,7.94,0,0,0,1.82,5.51,16.46,16.46,0,0,1,1.12,1.8,8.28,8.28,0,0,1,.81,4.82l-.12.69a4.15,4.15,0,0,0,0,2.32,4,4,0,0,0,1.29,1.46c.19.16.38.32.56.49l.23.21c1.16,1.08,1.93,1.79,1.88,3.61A.31.31,0,0,1,76,141.91Z"/><path class="cls-9" d="M78.11,97.46"/><path class="cls-8" d="M81.83,142.63a.29.29,0,0,1-.3-.25,13.54,13.54,0,0,0-.62-2.31,9.53,9.53,0,0,1-.66-4c0-.23.06-.47.1-.71a3.86,3.86,0,0,0,0-2.06,3.76,3.76,0,0,0-.61-.86,3.7,3.7,0,0,1-.75-1.14,4,4,0,0,1,.23-2.54l0-.15a6.38,6.38,0,0,0,.06-4.76c-.1-.2-.22-.4-.34-.59a5.16,5.16,0,0,1-.57-1.21,4.86,4.86,0,0,1,.07-2.16c.12-.6.25-1.21.37-1.82a63.08,63.08,0,0,0,1.4-9.5.29.29,0,0,1,.32-.29.3.3,0,0,1,.29.31,62.41,62.41,0,0,1-1.42,9.6L79.05,120a4.24,4.24,0,0,0-.08,1.88,4,4,0,0,0,.51,1.06c.12.21.25.42.35.64.67,1.36.66,3.06,0,5.2l0,.15a3.49,3.49,0,0,0-.24,2.15,3.38,3.38,0,0,0,.64.95,4.29,4.29,0,0,1,.7,1,4.14,4.14,0,0,1,.08,2.39c0,.23-.07.46-.09.69a8.82,8.82,0,0,0,.64,3.77,15.2,15.2,0,0,1,.64,2.41.31.31,0,0,1-.26.34Z"/><path class="cls-10" d="M80.54,155.11a.3.3,0,0,1-.23-.11,11.85,11.85,0,0,1-2.76-6.34.3.3,0,0,1,.27-.34.29.29,0,0,1,.33.27,11.31,11.31,0,0,0,2.62,6,.31.31,0,0,1,0,.43A.31.31,0,0,1,80.54,155.11Z"/><polygon class="cls-6" points="70.37 232.73 69.24 238.9 81.83 238.9 74.91 235.81 74.18 232.73 70.37 232.73"/><path class="cls-7" d="M65.45,94s5.88-6,13.74,1.06c0,0-2.67-9.84-11.07-6.33A11.46,11.46,0,0,0,65.45,94Z"/><path class="cls-11" d="M60.26,128.65a.3.3,0,0,1-.3-.27A183.91,183.91,0,0,1,59,96.81a.29.29,0,0,1,.32-.28.3.3,0,0,1,.29.32,182.66,182.66,0,0,0,.91,31.46.3.3,0,0,1-.27.34Z"/><path class="cls-6" d="M186.34,225.86l2.67,8s8.23.49,8.47,1.06l-11.85,3.24-3.09-11.31Z"/><polygon class="cls-6" points="123.89 238.9 117.11 238.9 112.19 235.1 118.29 225.09 121.66 227.14 117.64 234.6 118.89 237.59 123.89 238.9"/><polygon class="cls-12" points="165.35 150.45 189.53 231.51 182.66 233.29 163.78 190.83 153.41 172.08 142.89 198.08 120.06 232.89 115 229.28 132.6 188.62 138.29 151.66 165.35 150.45"/><path class="cls-6" d="M154.1,169.73a.34.34,0,0,1-.17,0,.31.31,0,0,1-.09-.42c.56-.86,1.49-2.84,2.39-4.75s1.86-3.93,2.44-4.82a.29.29,0,0,1,.42-.09.29.29,0,0,1,.09.41c-.56.87-1.49,2.85-2.4,4.76s-1.85,3.92-2.43,4.82A.3.3,0,0,1,154.1,169.73Z"/><path class="cls-2" d="M155.33,97.82l3-6.74s2.54.69,3.65-.39c.42-.4.84-2.56,1.05-5.25,0-.32,0-.64.07-1s1.41.59,1.42.24c0-.73-1.34-2.76-1.35-3.5-.06-3.39-.56-6.68-1.83-7.92C158.4,70.45,148.25,70,146.87,75a14.26,14.26,0,0,0,4,14.33l-2.75,7Z"/><path class="cls-7" d="M162.46,70.48a8.94,8.94,0,0,1,2.69,6.69c-4.14,2.23-8.3,4.1-12.44,6.33.57,6.34-.15,13-3.17,18.55s-8.62,10-14.95,10.58-13.1-3.42-14.75-9.57c-1.38-5.15.86-10.69,4.26-14.8s7.87-7.17,12-10.61,7.65-7.11,12.38-9.15S158.74,66.91,162.46,70.48Z"/><path class="cls-6" d="M144.36,97.22s-6.28,3-9.92,7.54-3.64,32.84-1.92,33.75,10.17,1.82,10.69,1.52,0-8.69,0-8.69Z"/><path class="cls-13" d="M139.1,137.88l-1.45,5.68a3.48,3.48,0,0,0,.57,3.95h0l.07,4.15,27.06-1.21,1.83-4.07-4.63-22.25a72.19,72.19,0,0,0,2.32-8.9c.38-2.91-9.06-17.64-10.41-19.42s-6.69-2.1-9,0-4.78,8.9-5.31,10.85S139.1,137.88,139.1,137.88Z"/><path class="cls-9" d="M154.36,106"/><path class="cls-6" d="M141.7,102.49s5.88-6,13.74,1.06c0,0-2.67-9.84-11.08-6.33A11.49,11.49,0,0,0,141.7,102.49Z"/><path class="cls-12" d="M136.51,137.17a.3.3,0,0,1-.31-.27,182.82,182.82,0,0,1-.91-31.56.29.29,0,0,1,.32-.29.3.3,0,0,1,.28.32,182.67,182.67,0,0,0,.92,31.46.3.3,0,0,1-.27.34Z"/><path class="cls-2" d="M168.94,153.42c-1-.11-1.86-2.3-2.19-3.68-1.33-.17-3.35-1.76-4.68-2.05,2.82,7,3.29,10.74,3.79,11.52,1.11,1.74,1.8,2.65,2.88,1.47s2.23.88,2.95-.26,2.36,1,2.61-.5-2.3-3.33-2.3-3.33S172.85,153.84,168.94,153.42Z"/><path class="cls-13" d="M143.55,103.52c-.85,4.56,19.38,50.31,19.38,50.31l6.75-2.35s-3.48-9.46-3.37-13-.05-4.89-3.17-7.71-3.08-19.57-5.43-24.11S144.15,100.36,143.55,103.52Z"/><path class="cls-14" d="M162.72,151.71a.29.29,0,0,1-.27-.17c-4.25-8.81-13.52-29.76-16.08-38.39A.3.3,0,0,1,147,113c2.55,8.6,11.8,29.5,16,38.3a.29.29,0,0,1-.14.4A.28.28,0,0,1,162.72,151.71Z"/><path class="cls-14" d="M159.64,116.13h0a.3.3,0,0,1-.3-.3,18.07,18.07,0,0,0-4-11.33.3.3,0,0,1,.47-.38,18.62,18.62,0,0,1,4.1,11.71A.29.29,0,0,1,159.64,116.13Z"/><path class="cls-6" d="M228.37,175.65l3.82-18.5,2.43,0,1.62,18.45h14.92c.23-8.19.26-23.7,0-31.33l-35.37-.95c-.37,6.11-.55,22.94-1.2,32.28Z"/><path class="cls-6" d="M214.56,175.65c-1.41,26.11-2.73,59.35-2.73,59.35l-5.27,3.9h8.22l13.59-63.25-7.63-1.21Z"/><path class="cls-6" d="M251.16,175.65l-11-6.07-3.9,6.07,6.54,63.25H251l-4.68-3.56A583.43,583.43,0,0,0,251.16,175.65Z"/><path class="cls-15" d="M233.53,155a.3.3,0,0,1-.29-.22l-2.06-7.67a.31.31,0,0,1,.22-.37.29.29,0,0,1,.37.21l2,7.67a.29.29,0,0,1-.21.37Z"/><path class="cls-3" d="M212,100.37c-2.4,2.83-6.95,15.22-6.95,17.36s-2.32,22.43,1.53,22.82,6.66-4.94,6.66-4.94Z"/><path class="cls-5" d="M251.76,102.15,249.33,146l-33.57-2.65-4.51,2.88c-1.86-10.74-3.18-23.49-1.41-34.6.56-3.53,2.28-12,3-15.49.38-1.91,15.83-10.16,18.64-10s4.1-.23,8.45.77c4.91,1.12,13.52,5.89,15.34,8.11s4.65,31.59,4,34.4c-1.52,6.85-5.34,18.92-5.34,18.92L249.33,146"/><path class="cls-10" d="M222.11,133.24a.27.27,0,0,1-.26-.16.3.3,0,0,1,.12-.41,47.06,47.06,0,0,0,15-12.74.31.31,0,0,1,.43-.05.3.3,0,0,1,.06.42,47.94,47.94,0,0,1-15.18,12.91Z"/><path class="cls-10" d="M232.31,137.2a.3.3,0,0,1-.18-.06.31.31,0,0,1-.06-.43c3.91-5,6.7-9.24,8.55-14.8a.29.29,0,0,1,.38-.19.3.3,0,0,1,.2.38c-1.88,5.64-4.7,9.92-8.65,15A.3.3,0,0,1,232.31,137.2Z"/><path class="cls-10" d="M216.73,140.85h0a.3.3,0,0,1-.28-.33c.4-5.4.89-10.58,1.36-15.58.35-3.75.72-7.62,1.05-11.64.41-4.84.49-14-1.78-17.87a.31.31,0,0,1,.11-.42.3.3,0,0,1,.41.11c2.35,3.95,2.28,13.32,1.87,18.23q-.51,6-1.06,11.65c-.47,5-.95,10.17-1.36,15.57A.3.3,0,0,1,216.73,140.85Z"/><path class="cls-2" d="M229,79.72v7.07s5.72,6.06,11,.15l-.46-7.22Z"/><path class="cls-2" d="M242.94,74.76a1.79,1.79,0,0,0-.58-.17c.81-5.16.46-11.57-8-11.32-5,.15-6.54,4.77-6.86,9.61a1.47,1.47,0,0,0-1.15,0c-1.74.52-.53,4.91,1.27,5.59.67,4.42,3,7.25,6.35,7.5,3.09.23,5.51-2.17,7-5.8C242.82,79.72,244.6,75.5,242.94,74.76Z"/><path class="cls-16" d="M234.38,86.25l-.42,0a6.26,6.26,0,0,1-4.47-2.39.3.3,0,1,1,.47-.38,5.65,5.65,0,0,0,4,2.17,5.4,5.4,0,0,0,4.48-2,.3.3,0,0,1,.43,0,.29.29,0,0,1,0,.42A6.11,6.11,0,0,1,234.38,86.25Z"/><path class="cls-2" d="M211.25,146.25s4.6,9,6.19,4.88-1.68-7.76-1.68-7.76h0Z"/><path class="cls-12" d="M227.51,72.88l1.07,1.72h1.14v-3a6,6,0,0,0,1.59-3.11l8.61.61s-.27,2.12.41,3v3.41h1.06l1-.92s2.09-7.57,1.24-9.47A2,2,0,0,0,241,63.91s-2.84-3.33-6.8-2.2-7.15,3.57-7.75,5.23S227.51,72.88,227.51,72.88Z"/><path class="cls-2" d="M249.33,146s-4.49,5-2.27,8.14,6.9-5.79,6.9-5.79A37.14,37.14,0,0,0,249.33,146Z"/><path class="cls-10" d="M249.41,145.42a.31.31,0,0,1-.29-.22.3.3,0,0,1,.2-.38s.72-.26.9-1.55a4.22,4.22,0,0,0-.58-1.75c-.84-1.79-2.1-4.51.44-6.92,2-1.94,1.47-4.37.95-6.52-.3-1.28-.56-2.38-.18-3.17.52-1.1.59-11.2.64-18.57,0-6,.07-9.66.23-10.38a.32.32,0,0,1,.37-.23.31.31,0,0,1,.23.36c-.16.69-.19,5.34-.22,10.25-.07,10-.16,17.7-.71,18.83a5,5,0,0,0,.23,2.77c.53,2.19,1.18,4.92-1.13,7.1s-1.16,4.39-.3,6.23a4.24,4.24,0,0,1,.63,2.09c-.24,1.69-1.28,2-1.32,2Z"/><path class="cls-15" d="M219.21,154.18a.34.34,0,0,1-.19-.07.3.3,0,0,1,0-.43,5.49,5.49,0,0,0-.92-7.77.3.3,0,0,1-.06-.42.32.32,0,0,1,.43-.06,6.07,6.07,0,0,1,1,8.63A.3.3,0,0,1,219.21,154.18Z"/><path class="cls-15" d="M245,158.61a.3.3,0,0,1-.06-.6,8.09,8.09,0,0,0,4.1-2.35.3.3,0,1,1,.44.42A8.69,8.69,0,0,1,245,158.6Z"/><path class="cls-3" d="M218.24,92.06c1.54,2.85,1.13,14.88,1.13,14.88v4.87s6.46-12.39,4.7-22.88Z"/><path class="cls-6" d="M321.54,98.76c6.14-2.25,10.89-7.42,10.37-14.09a17.17,17.17,0,0,0-9.57-14.35A16,16,0,0,0,316,68.76c-9.19-.19-14,10.24-15,18.15-.51,4.17,2.75,6.06,5.72,8.28C311.1,98.45,316.08,100.76,321.54,98.76Z"/><path class="cls-2" d="M318.28,98.07l3.07-6.69s2.52.72,3.65-.34c.43-.39.89-2.54,1.14-5.23,0-.32.06-.65.08-1s1.4.61,1.42.26c0-.73-1.3-2.78-1.3-3.52,0-3.39-.44-6.69-1.69-7.95-2.86-2.88-13-3.46-14.46,1.45A14.24,14.24,0,0,0,314,89.46l-2.86,6.94Z"/><path class="cls-6" d="M328,75.67c-5.24,5.54-8.68,13.22-16,15.44-.73-2.76-4.72-9.1-4.62-12a9.83,9.83,0,0,1,3.43-7.54,10,10,0,0,1,6.06-1.79C321.22,69.82,325.71,71.91,328,75.67Z"/><path class="cls-6" d="M346.54,225.86l2.66,8s8.23.49,8.47,1.06l-11.84,3.24-3.1-11.31Z"/><polygon class="cls-6" points="284.09 238.9 277.3 238.9 272.38 235.1 278.49 225.09 281.85 227.14 277.83 234.6 279.08 237.59 284.09 238.9"/><polygon class="cls-6" points="329.56 192.55 344.29 232.58 348.49 231.75 341.23 189.31 341.23 189.31 329.19 151.66 298.48 151.66 293.04 189.94 293.04 189.94 275.63 229.77 279.16 232.15 302.18 196.81 303.93 192.65 314.81 168.44 329.56 192.55"/><path class="cls-7" d="M310.71,90.93s6.3,2,9.46,5.61,8.27,14.16,8.38,15.34-3.71,14-3.71,14l7.79,29.75s-24.26,3.75-36.39,0L302.59,132s-1.56-9.67-1.93-11.18c-1.08-4.39.79-11.11,1.59-15.72a24.45,24.45,0,0,1,5.67-11A23.26,23.26,0,0,0,310.71,90.93Z"/><polygon class="cls-3" points="292.08 140.58 334.07 133.13 337.72 156.42 295.09 162.86 292.08 140.58"/><path class="cls-2" d="M322.86,121.62l1.57,6.21,14.62-5.45s2.44-1.93,2.94-2.3,2-4.19,2.15-4.56-2.83-.55-2.83-.55a20.93,20.93,0,0,0-.24-2.42c-.08-.31-.76-1.74-1.06-.78l-.66,2.82-.93.93a15.92,15.92,0,0,0-1.05,3.51Z"/><polygon class="cls-3" points="340.31 118.64 342.17 111.77 343.71 106.29 345.68 107.03 342.04 118.82 340.31 118.64"/><path class="cls-7" d="M321.65,121.43s1.66-4.7,4.79-2.79a4.72,4.72,0,0,0,5.64-.46l5.29.85,1.68,3.35L323,129.15Z"/><path class="cls-2" d="M344.14,115.52c.34-.77-.42-3.19-.72-3S343,114,343,114l.29.74s-.5-.18-.53,0-.2,1-.2,1l-.08,1.6Z"/><path class="cls-7" d="M312.77,91.71c-2.92-1.95-13.12-2.3-14.33-1.52s1.61,3.26,1.31,4.9-6.27,3.78-4.24,7.36,8,7.83,8,7.83Z"/><path class="cls-15" d="M315.72,165.43a.26.26,0,0,1-.17-.05.3.3,0,0,1-.09-.42l3.4-5.27a.29.29,0,0,1,.42-.09.29.29,0,0,1,.09.41l-3.4,5.28A.31.31,0,0,1,315.72,165.43Z"/><path class="cls-2" d="M327.52,152.82c-1-.19-1.66-2.46-1.86-3.85-1.32-.29-3.19-2.05-4.48-2.46,2.19,7.21,2.34,11,2.77,11.81.95,1.83,1.55,2.8,2.74,1.71s2.14,1.08,3,0,2.26,1.2,2.64-.27-2-3.51-2-3.51S331.37,153.58,327.52,152.82Z"/><path class="cls-7" d="M306.59,105.75c-1.25,4.46,14.91,46.95,14.91,46.95l6.92-1.74s-2.63-9.74-2.21-13.3.38-4.87-2.48-7.95-1.37-14.92-3.3-19.65S307.46,102.65,306.59,105.75Z"/><path class="cls-11" d="M321.65,130.31a.3.3,0,0,1-.29-.19c-1.17-3.09-1-6.45-.75-9.71.05-.87.11-1.73.14-2.59a41.07,41.07,0,0,0-1.54-12.62,6.69,6.69,0,0,0-1.33-2.81,2.4,2.4,0,0,0-2.62-.71.3.3,0,0,1-.26-.54,3,3,0,0,1,3.32.84,7.28,7.28,0,0,1,1.48,3,41.68,41.68,0,0,1,1.55,12.81c0,.87-.08,1.74-.14,2.61-.2,3.19-.41,6.49.72,9.45a.3.3,0,0,1-.18.39A.18.18,0,0,1,321.65,130.31Z"/><path class="cls-11" d="M316.52,137.52a.3.3,0,0,1-.28-.2c-1-2.62-1.9-4.77-2.78-6.85a70.31,70.31,0,0,1-4.9-14.88.3.3,0,0,1,.23-.36.31.31,0,0,1,.36.24A68.66,68.66,0,0,0,314,130.23c.88,2.09,1.79,4.25,2.79,6.87a.31.31,0,0,1-.18.4Z"/><path class="cls-11" d="M301.7,106.94h-.06a.3.3,0,0,1-.24-.36,22.49,22.49,0,0,1,7.48-12.67.3.3,0,0,1,.4.46A21.88,21.88,0,0,0,302,106.69.3.3,0,0,1,301.7,106.94Z"/><path class="cls-17" d="M412.22,143.14c-.24-2.17-.71-4-1-6.17h-29c-.56,1.85,1.4,3.62,1.22,5-.65,4.75,3.35,16,3.35,16l1.06,6.17,1.42,23.39s-1.23,11.43-1.95,20.49c-.12,1.4-.16,2.76-.17,4.11a9,9,0,0,0,.06,1.05c.2,7,2.5,13.44,2.61,20.73l3.55.87s1.35-12,2.75-22.65h0c.24-1.8.47-3.55.71-5.21l-.09,1.1c-.11,1.4-.16,2.76-.17,4.11,0,.36,0,.71.06,1.05.2,7,2.5,13.44,2.62,20.73l3.54.87s1.36-12,2.75-22.65h0c1-7.61,2-14.5,2.59-15.76.87-2,2.45-18.94,4.1-30.88h0C412.9,160.87,412.7,147.61,412.22,143.14Z"/><polygon class="cls-6" points="399.22 232.73 398.08 238.9 410.67 238.9 403.76 235.81 403.02 232.73 399.22 232.73"/><path class="cls-3" d="M380,125.67s-.06,11,.94,12.11h0l2.49,4.15,28.77,1.21.39-4.07,1.42-.94a3.51,3.51,0,0,0,1.48-3.64l-7.36-18.88a59.77,59.77,0,0,1-.11-8.9c.39-2.91-6.63-18.85-8-20.63s-6.69-2.1-8.95,0-8.42,11.33-8.94,13.27S380,125.67,380,125.67Z"/><path class="cls-3" d="M393.31,84.32c-3,.72-16,8.25-17.17,10.67s-11.07,28.7-7.58,31.63,14.25-1.35,14.25-1.35l1.43-15.58Z"/><path class="cls-9" d="M397.54,97.46"/><path class="cls-18" d="M400,155.11a.31.31,0,0,1-.23-.11,11.85,11.85,0,0,1-2.76-6.34.3.3,0,0,1,.27-.34.3.3,0,0,1,.33.27,11.31,11.31,0,0,0,2.62,6,.3.3,0,0,1,0,.43A.31.31,0,0,1,400,155.11Z"/><polygon class="cls-6" points="389.8 232.73 388.66 238.9 401.25 238.9 394.33 235.81 393.6 232.73 389.8 232.73"/><path class="cls-18" d="M397.48,205.05h-.07a.29.29,0,0,1-.22-.36c.06-.27,6.47-26.28,7.57-31.19s.5-25.37.49-25.57a.33.33,0,0,1,.08-.22l3.09-3.27a.3.3,0,1,1,.44.41l-3,3.18c.06,1.9.57,20.8-.51,25.6s-7.51,30.94-7.57,31.2A.31.31,0,0,1,397.48,205.05Z"/><path class="cls-8" d="M384.24,139.72a.31.31,0,0,1,0-.61l26.83-.15h0a.3.3,0,0,1,.3.3.32.32,0,0,1-.3.31l-26.83.15Z"/><path class="cls-2" d="M435.6,67.25l.59-3.12s2.39-2.23,2.88-2.6,2-4.18,2.16-4.55-2.84-.56-2.84-.56a20.06,20.06,0,0,0-.23-2.41c-.09-.32-.76-1.75-1.06-.78l-.66,2.82-.94.93a16.18,16.18,0,0,0-1,3.51l-1.94,4C433.56,65.43,434.58,66.34,435.6,67.25Z"/><path class="cls-3" d="M444,38.19l-4.74,15-1.86,6.87,1.72.18,5.72-21.59C444.42,38.43,444.43,38.42,444,38.19Z"/><path class="cls-2" d="M441.23,57c.34-.78-.42-3.19-.72-3s-.43,1.48-.43,1.48l.29.74s-.5-.18-.52,0-.2,1-.2,1l-.08,1.6Z"/><path class="cls-3" d="M412.23,102.42c3.08-3.12,11.59-10.64,14.33-14.48,2.59-3.63,10.37-21.54,10.37-21.54l-4.28-4.14L420.23,79.71s-8.81,5.43-13.53,7.41C409.57,92.33,409.06,97.39,412.23,102.42Z"/><path class="cls-3" d="M395.84,84.63c24.2,1.63,25.49,3.77,18.84,11.46l-3.61,29.18-8.53-12.53Z"/><polygon class="cls-5" points="394.53 111.03 398.62 107.57 394.53 118.15 390.46 119.01 394.53 111.03"/><polygon class="cls-5" points="386.39 115.2 387.84 108.76 394.53 111.03 389.76 120.39 386.39 115.2"/><path class="cls-2" d="M380.21,118.92l2.72-2.48s2.16-3,3.06-3.24l.4,2s6.58-.89,6.75-.62l.9,1.52-2,.69s.73.75.65,1.09a2.35,2.35,0,0,1-.41.73,6.3,6.3,0,0,1,.31,1.69c0,.86-1.59.08-1.92.83s-5.06,1.28-5.73,1.28-6.75,1.51-6.75,1.51Z"/><path class="cls-8" d="M379.63,118.12h0l-4.1-.29a.32.32,0,0,1-.28-.33.3.3,0,0,1,.33-.28l4.09.3a.3.3,0,0,1,0,.6Z"/><path class="cls-8" d="M378.19,117.92a.27.27,0,0,1-.12,0,.32.32,0,0,1-.16-.4,76.42,76.42,0,0,0,5.15-16.71,10.31,10.31,0,0,0,.25-3.16,3.64,3.64,0,0,0-1.4-2.58.3.3,0,0,1-.07-.42.3.3,0,0,1,.42-.08,4.23,4.23,0,0,1,1.65,3,10.78,10.78,0,0,1-.25,3.34,77.44,77.44,0,0,1-5.19,16.84A.3.3,0,0,1,378.19,117.92Z"/><path class="cls-8" d="M409.77,121a.29.29,0,0,1-.26-.16L397.1,99.23a.3.3,0,0,1,.12-.41.29.29,0,0,1,.41.11l12.4,21.6a.32.32,0,0,1-.11.42A.42.42,0,0,1,409.77,121Z"/><path class="cls-2" d="M402.82,86.06l.86-4.22s2.69-.16,3.43-1.58c.31-.59.08-2.64-.76-5.74-.09-.33,1.34-.08,1.24-.41-.19-.66-3.35-2.88-3.57-4.14-.77-4.62-1.53-5.67-3.22-6.49-3.75-1.81-15,1.1-14.74,6.36s2.68,7.45,7.42,13.46l-.17,1a4.84,4.84,0,0,0,5.56,5.54h0A4.84,4.84,0,0,0,402.82,86.06Z"/><path class="cls-6" d="M393.48,83.3l1.18-5.58S390,75.07,392,72.47s8,6.11,8,6.11l.52-1.3-2.69-5.65a4.9,4.9,0,0,0,1.49-4s5.25-2.07,4.82-5.76-16.27,1.9-19,5S386.55,76.18,393.48,83.3Z"/><path class="cls-6" d="M109,351.4l-16.9,2.86L75.17,351.4,75,433.5h3.9l13-73.43,1.18,73.43H97s6.78-30.9,7.07-33.71-1-11.51-1-11.51Z"/><path class="cls-6" d="M78.81,291.73S80,280.57,81.47,275s7.51-7.65,11.19-7.31,10.61,1.83,10.7,10.4a83.91,83.91,0,0,0,1.22,14.2Z"/><path class="cls-3" d="M80.19,312.62l2.12,13.91c-5.56,8.14-8.52,20.41-10,29.83h40.36c-3.54-21.2-11.51-29.74-11.51-29.74l3.22-14.16c2.89-2.73,3-7.08,3-9v-7.24s-12.87-6.27-15.76-6.27-14.81,5.63-14.81,5.63v7.72C75.85,308.92,80.19,312.62,80.19,312.62Z"/><path class="cls-19" d="M82,349.86l1.1-57.1s-6.41,1.61-8.37,3.45-6.39,35.09-6.85,45.09c0,1.19,1.27,4,1.27,4-.08,1.37-.17,2.9-.26,4.55Z"/><path class="cls-6" d="M104.22,312.41a.29.29,0,0,1-.16,0,.3.3,0,0,1-.1-.42,11.7,11.7,0,0,0,.83-10.68.34.34,0,0,1,0-.26c.23-.45.45-.93.67-1.41s.44-1,.68-1.45a.3.3,0,1,1,.54.28c-.23.45-.45.93-.67,1.42s-.4.89-.61,1.31a12.36,12.36,0,0,1-.94,11.11A.29.29,0,0,1,104.22,312.41Z"/><path class="cls-2" d="M89,285.76v7.07s3.58,6.06,6.88.15l-.29-7.22Z"/><path class="cls-2" d="M90.47,269c-6.1.8-7.08,7.85-5.61,13.42,1.09,4.16,3.59,8.36,7.5,8.26s6.28-5.45,7-8.74C100.47,276.64,100.26,267.69,90.47,269Z"/><path class="cls-2" d="M85.59,280.86s-.24-2.33-2.12-1.55.41,6,2.51,5.44S85.59,280.86,85.59,280.86Z"/><path class="cls-2" d="M98.13,280.75s.06-2.35,2-1.71,0,6.06-2.12,5.61S98.13,280.75,98.13,280.75Z"/><path class="cls-6" d="M98.76,270.72a4.19,4.19,0,0,0-1.53-.32,1.53,1.53,0,0,0-.72-.89c-2.13-1.16-7.19-1-9.41,0s-4.79,5.06-5.37,7.41,0,5.13.62,7.63a2.72,2.72,0,0,0,1.07,1.87,2.51,2.51,0,0,0,1.83,0,19.15,19.15,0,0,0,9-5.26,12.34,12.34,0,0,0,1-1.16h0a13.83,13.83,0,0,0,4.27,6,1.15,1.15,0,0,0,.74.34c.45,0,.72-.48.91-.89a12.5,12.5,0,0,0,1.44-4.72C102.67,279.12,100.28,271.39,98.76,270.72Z"/><path class="cls-16" d="M92.39,291a5.2,5.2,0,0,1-2.66-.71.3.3,0,1,1,.31-.52,4.8,4.8,0,0,0,5-.16.3.3,0,1,1,.34.5A5.28,5.28,0,0,1,92.39,291Z"/><path class="cls-19" d="M113.23,349.86c-.08-1.33-.15-2.57-.22-3.72a29.78,29.78,0,0,0,.81-5c-.45-10-4.48-43.09-6.44-44.94s-7.57-3.47-7.57-3.47l.66,57.12Z"/><path class="cls-19" d="M107.38,296.21c2,1.38,3.31,5.15,4.22,8.25s9.31,11.65,8.25,14.68-1.35,3.27-.14,7.06-6,4.6-8.87,3.82-9.22-4.69-9.22-4.69l-.25-6,3.13.44Z"/><path class="cls-19" d="M74.74,296.21c-2,1.38-3.2,5.15-4.11,8.25s-9.31,11.65-8.25,14.68,1.35,3.27.14,7.06,6,4.6,8.87,3.82,9.21-4.69,9.21-4.69l.26-6-3.13.44Z"/><polygon class="cls-3" points="78.92 433.5 77.71 438.43 70.92 438.43 74.31 435.97 75.02 433.5 78.92 433.5"/><polygon class="cls-3" points="93.08 433.5 93.08 438.43 99.87 438.43 96.47 435.97 96.98 433.5 93.08 433.5"/><polygon class="cls-6" points="73.99 320.36 75.02 303.92 104.22 303.92 105.2 323.15 73.99 323.15 73.99 320.36"/><path class="cls-15" d="M89.94,315.75a2.64,2.64,0,0,1-2.18-1.12,2.56,2.56,0,0,1,1.12-3.75,2.37,2.37,0,0,1,1-.19,2.54,2.54,0,0,1,1.34,4.74A2.42,2.42,0,0,1,89.94,315.75Zm-.11-4.46a1.71,1.71,0,0,0-.71.15,1.95,1.95,0,0,0-.85,2.86,2,2,0,0,0,1.67.85,1.92,1.92,0,0,0,.93-.24,2,2,0,0,0,.76-2.56A2,2,0,0,0,89.83,311.29Z"/><path class="cls-2" d="M110.31,319.3s-1.55-3-2.48-3l-1.19,2.75s-5.06-.92-5.14-.61l-.45,1.71,2.1.11s-.5.93-.33,1.23a2.69,2.69,0,0,0,.6.59,6.24,6.24,0,0,0,.17,1.71c.22.82,0,1.53.56,2.16s5.21-.17,5.86-.36l.18-.07a3.49,3.49,0,0,0,.12-6.23Z"/><path class="cls-2" d="M70.32,320.6s1.55-3,2.48-3L74,320.36s5.06-.93,5.14-.62l.45,1.71-2.1.11s.5.94.33,1.23a2.69,2.69,0,0,1-.6.59,6.24,6.24,0,0,1-.17,1.71c-.22.83,0,1.53-.56,2.17s-5.21-.18-5.86-.36l-.18-.08a3.49,3.49,0,0,1-.12-6.22Z"/><path class="cls-20" d="M69.5,320.52a.29.29,0,0,1-.26-.15,15.49,15.49,0,0,0-2-2.7.29.29,0,0,1,0-.43.3.3,0,0,1,.42,0,15.73,15.73,0,0,1,2.06,2.81.29.29,0,0,1-.11.41A.28.28,0,0,1,69.5,320.52Z"/><path class="cls-20" d="M110.23,318.17h-.09a.3.3,0,0,1-.2-.38,4.33,4.33,0,0,1,1.84-2.34.31.31,0,0,1,.42.1.32.32,0,0,1-.1.42,3.64,3.64,0,0,0-1.58,2A.3.3,0,0,1,110.23,318.17Z"/><path class="cls-20" d="M79.57,346.66h0c-3-.13-6.08-.32-9.11-.55a.31.31,0,0,1-.28-.33.29.29,0,0,1,.33-.28c3,.24,6.08.42,9.08.55a.3.3,0,0,1,.29.32A.3.3,0,0,1,79.57,346.66Z"/><path class="cls-20" d="M102,346.44a.3.3,0,0,1,0-.6,74,74,0,0,1,9.06-.07.3.3,0,0,1,.29.32.29.29,0,0,1-.32.29,74.89,74.89,0,0,0-9,.06Z"/><path class="cls-20" d="M69.71,330.13a.3.3,0,0,1-.3-.29.3.3,0,0,1,.29-.32A2.88,2.88,0,0,0,72,328.17a.31.31,0,1,1,.52.32,3.47,3.47,0,0,1-2.81,1.64Z"/><path class="cls-20" d="M112.17,329.53a.26.26,0,0,1-.15,0,10.45,10.45,0,0,1-3.3-2.94.3.3,0,0,1,.06-.42.31.31,0,0,1,.43.07,10.07,10.07,0,0,0,3.11,2.77.3.3,0,0,1-.15.56Z"/><path class="cls-20" d="M113.1,325.09H113a.3.3,0,0,1-.18-.39,5.11,5.11,0,0,0-.75-4.73.29.29,0,0,1,.05-.42.3.3,0,0,1,.43,0,5.69,5.69,0,0,1,.84,5.3A.3.3,0,0,1,113.1,325.09Z"/><path class="cls-20" d="M67.91,325.9a.3.3,0,0,1-.26-.15,4.48,4.48,0,0,1,.29-4.88.29.29,0,0,1,.42-.06.3.3,0,0,1,.06.42,3.89,3.89,0,0,0-.25,4.22.29.29,0,0,1-.1.41A.32.32,0,0,1,67.91,325.9Z"/><path class="cls-8" d="M95,346.24a.29.29,0,0,1-.23-.1,38.17,38.17,0,0,1-8.39-18.58.29.29,0,0,1,.25-.34.3.3,0,0,1,.34.25,37.68,37.68,0,0,0,8.26,18.28.29.29,0,0,1,0,.42A.26.26,0,0,1,95,346.24Z"/><path class="cls-6" d="M154.42,280.35a34.18,34.18,0,0,0,1.05,24.91,28.45,28.45,0,0,0,18.91,15.82A22.48,22.48,0,0,0,189,319.76a17.72,17.72,0,0,0,9.53-10.88A14.68,14.68,0,0,0,195.28,295c-2.57-2.69-6.24-4.26-8.45-7.25-3.81-5.14-2.22-12.87-6-18-3.47-4.72-10.68-5.55-15.9-2.9S156.28,274.8,154.42,280.35Z"/><path class="cls-3" d="M196.63,434.67h0s7.57,2.93,7.65,3.59H193l-.78-7.09Z"/><path class="cls-3" d="M145.77,418.37l-2.71,2.24s.39,7.45-.07,7.94l-5.78-9.38L143,415Z"/><path class="cls-2" d="M175.33,377.54s-2,17.68-2.35,18.36-29.92,24.71-29.92,24.71l-2.2-4.05,20.91-29.73-3-35.25Z"/><path class="cls-2" d="M158.05,332.79c7.48.76,15,1.37,21.59,4.73l-1.78,5.79s10.28,29.81,10.66,32.3,8.11,59.06,8.11,59.06l-4.09-.53-17.21-55.26s-21.57-25.6-20.53-35.68A26.11,26.11,0,0,1,158.05,332.79Z"/><path class="cls-19" d="M185,364.22c-3.1-9.33-7.09-20.91-7.09-20.91l1.78-5.79c-6.54-3.36-14.11-4-21.59-4.73a26.11,26.11,0,0,0-3.25,10.41c-.33,3.16,1.57,7.84,4.33,12.78l1.32,15.43c2.62-.4,5.21-1,7.79-1.6h0c.29-.07.57-.17.86-.24l1-.26h0c2.53-.7,5-1.46,7.52-2.3S182.49,365.19,185,364.22Z"/><path class="cls-2" d="M174.32,297.18s-.92-8.14.57-9.45c1-.85,4.19.48,5.09-.87.27-.41-.23-3.46-.43-5.51-.05-.51,1.54.12,1.46-.45s-2.76-3.35-2.67-4.06c1.35-11-16.85-11.28-17.34-2.71a15,15,0,0,0,7.31,13.78l-3,5.71Z"/><path class="cls-2" d="M179.4,317l8,12.91s17.09,8.57,18.09,8.91a34.17,34.17,0,0,1,6.72,5.66c.61,1-1.93,1.43-2.41,1.42a9.54,9.54,0,0,1-2-.68s-3,1.84-3.18,1.79-2.17-4.42-2.17-4.42-19.92-5.09-21.49-6.4-7.76-16.25-7.76-16.25Z"/><path class="cls-7" d="M178.89,313.9l8,17.06s7.77-1.64,10.51,1.83a18.63,18.63,0,0,0,5.77,4.95l-.79,4.83s-19.76-1.77-22.78-5.05-2.82-21.08-2.82-21.08Z"/><polygon class="cls-3" points="174.42 297.39 176.5 293.65 168.31 287.91 165.48 292.15 174.42 297.39"/><path class="cls-7" d="M159.42,296.7s5.13-7.2,10.7-4.69c1.38.62,12.26,14.7,12.47,17.08s-4.32,10.63-4.32,10.63l4.67,27.86-32-8.84L158,321.61S155.79,312.27,159.42,296.7Z"/><path class="cls-20" d="M166,366.66a.3.3,0,0,1-.25-.12c-2.16-3-4.1-5.76-5.87-8.64a.3.3,0,1,1,.51-.31c1.77,2.86,3.7,5.58,5.85,8.59a.31.31,0,0,1-.07.43A.34.34,0,0,1,166,366.66Z"/><path class="cls-2" d="M251.32,293l1.8-6.93s2.61.7,3.75-.41c.48-.46.92-2.48,1.11-5.68,0-.34,1.29.35,1.31,0,0-.68-2.28-3.79-2.08-5.05.74-4.63.35-5.87-1-7.18-3-2.91-13.43-3.34-14.85,1.73s-1,7.53,1.61,14.73l-1.58,7.19Z"/><path class="cls-3" d="M277,425.39l2.67,8.05s8.23.5,8.46,1.06l-11.84,3.24-3.09-11.3Z"/><polygon class="cls-3" points="214.59 438.43 207.81 438.43 202.89 434.63 208.99 424.62 212.35 426.68 208.34 434.14 209.59 437.12 214.59 438.43"/><path class="cls-2" d="M231.31,386.36a56.06,56.06,0,0,1-5.91-1.15L206.14,429.3l3.52,2.38,23-35.34,3.56-8.47C234.48,387.53,233.1,386.69,231.31,386.36Z"/><path class="cls-2" d="M265.27,383.17c-4,1.49-4.89,3.1-9,4.25l.63,2.95,17.89,41.74,4.2-.83Z"/><path class="cls-21" d="M268,383.36l-8.27-32.16H229l-5.44,35.35c2.61.73,5.22,1.4,7.88,1.91,1.85.35,3.7.66,5.53,1L245.32,368l8.83,20.64C258.41,387.44,263.83,384.91,268,383.36Z"/><path class="cls-13" d="M241.22,285.61s6.29,2,9.45,5.62,8.27,14.15,8.38,15.33-1.58,14.16-1.58,14.16l5.67,34.41s-24.27,3.76-36.4,0l6.35-28.43s-.91-10-1.93-11.18.8-11.11,1.59-15.72a24.45,24.45,0,0,1,5.67-10.95A22.87,22.87,0,0,0,241.22,285.61Z"/><path class="cls-13" d="M243.28,286.39c-2.92-1.95-13.13-2.3-14.34-1.52s1.62,3.26,1.31,4.9-6.26,3.78-4.24,7.36,8,7.83,8,7.83Z"/><path class="cls-22" d="M246.22,365a.37.37,0,0,1-.17-.05.31.31,0,0,1-.09-.42l3.4-5.28a.3.3,0,0,1,.51.33l-3.4,5.28A.29.29,0,0,1,246.22,365Z"/><path class="cls-6" d="M258.24,261.4a2,2,0,0,1-.68,1.65,1.9,1.9,0,0,0-1.89-2.22,3,3,0,0,0-2.54,1.58.82.82,0,0,1,1.37.16A1.24,1.24,0,0,1,254,264a2.78,2.78,0,0,1-1.63.38,16.32,16.32,0,0,1-3.91-.71,15.1,15.1,0,0,0-3.92-.7,5.25,5.25,0,0,0-3.67,1.31,3.56,3.56,0,0,0-.66,3.89c-3.33,1.37-1,7.2,0,9.78s2.79,6.22,2.79,6.22l3.42-3.34s-2.61-3-1.46-4.39,2.34.75,2.34.75.38,6.45,1.28,6.82,6.15,4.17,8.39,3.34,1-7.41,1-7.41l-3.3-.38a5.83,5.83,0,0,1-5.16-6h0s3.57,1.18,4.22-1.82c2.49-.36,5.5-1.39,6.44-3.72A5.57,5.57,0,0,0,258.24,261.4Z"/><path class="cls-5" d="M252.91,264.39s-5.62,12.84-11.81,15.74c0,0-4.78-8.12-4.68-11.76s2.73-6,6.87-6.26S252.91,264.39,252.91,264.39Z"/><path class="cls-2" d="M213.31,342.14c-.54-.87.65-2.9,1.53-4-.7-1.16-.7-3.73-1.3-4.94-3.73,6.54-6.37,9.24-6.68,10.12-.67,1.95-1,3.05.64,3.17s.69,2.29,2,2.15.68,2.47,2,1.73,1.18-3.86,1.18-3.86S215.41,345.46,213.31,342.14Z"/><path class="cls-13" d="M236.66,291.25c-4.1,2.16-27.39,46.43-27.39,46.43l6,3.83s5.26-8.6,8.14-10.74,3.8-3.08,4.07-7.27,13.43-14.58,15.53-19.23S239.5,289.76,236.66,291.25Z"/><path class="cls-23" d="M242.42,276.52a.32.32,0,0,1-.21-.08.31.31,0,0,1,0-.43,39.19,39.19,0,0,0,6.39-9.43.31.31,0,1,1,.55.27,40.18,40.18,0,0,1-6.49,9.57A.28.28,0,0,1,242.42,276.52Z"/><path class="cls-14" d="M231.16,315.82a.29.29,0,0,1-.29-.24c-1.7-8.86-.58-20.81,7.65-27.8a.31.31,0,0,1,.39.47c-8,6.81-9.11,18.52-7.45,27.21a.31.31,0,0,1-.24.36Z"/><path class="cls-13" d="M261.43,316.05h-3.57s-8.62-20-11.6-22.52-3.77,21,1.16,28,6.08,7.07,15.55,3.33S261.43,316.05,261.43,316.05Z"/><path class="cls-2" d="M289.62,308.07c.4-.89.16-3.67-.18-3.42s-.66,1.81-.66,1.81l-.13.75s-.57-.2-.6,0-.23,1.16-.23,1.16l-.1,1.83Z"/><polygon class="cls-3" points="285.24 311.64 287.37 303.77 289.13 297.5 291.39 298.34 287.22 311.84 285.24 311.64"/><path class="cls-2" d="M262.83,316.27l1.8,7.12s18.22-7.13,19.17-7.47c0,0,2.79-2.21,3.36-2.63s2.32-4.79,2.46-5.22-3.24-.63-3.24-.63a24,24,0,0,0-.27-2.77c-.1-.36-.87-2-1.22-.89l-.75,3.23-1.07,1.06a18.13,18.13,0,0,0-1.2,4Z"/><path class="cls-13" d="M261.43,316.05s1.91-5.38,5.5-3.2,4-.52,4-.52l9.7-2.66,3.14,6.25-20.83,9Z"/><path class="cls-14" d="M253.23,327.72a6.48,6.48,0,0,1-3.78-1.34,15.3,15.3,0,0,1-3.39-3.81,88.5,88.5,0,0,1-7.36-12.81,24.68,24.68,0,0,1-2.75-9.43c-.11-3.08.77-5.76,2.36-7.18a5.16,5.16,0,0,1,4.43-1.17.31.31,0,0,1,.26.35.3.3,0,0,1-.35.25,4.65,4.65,0,0,0-3.94,1c-1.45,1.3-2.26,3.81-2.16,6.7a24.24,24.24,0,0,0,2.7,9.2,87.13,87.13,0,0,0,7.31,12.72,14.76,14.76,0,0,0,3.25,3.67,5.5,5.5,0,0,0,4.47,1.1.29.29,0,0,1,.37.21.3.3,0,0,1-.22.37A4.75,4.75,0,0,1,253.23,327.72Z"/><path class="cls-14" d="M255.58,314.32h0a.31.31,0,0,1-.28-.33c.2-2.61.26-5.54-1.59-7.25a9.55,9.55,0,0,0-1.17-.86,9.24,9.24,0,0,1-1.1-.79,10.69,10.69,0,0,1-2.48-3.74c-.76-1.59-1.48-3.09-2.89-3.89a.31.31,0,0,1-.12-.42.32.32,0,0,1,.42-.11c1.57.9,2.37,2.56,3.13,4.16a10.44,10.44,0,0,0,2.33,3.54,10.17,10.17,0,0,0,1,.74,10.84,10.84,0,0,1,1.25.92c2,1.9,2,5,1.79,7.75A.3.3,0,0,1,255.58,314.32Z"/><path class="cls-3" d="M180.1,330.66l-29.84-6.35-5.59,21.78,30.48,7.3C177.12,345.87,177.75,338.07,180.1,330.66Z"/><path class="cls-2" d="M161,347.66c-.71-.74.06-3,.7-4.22-.91-1-1.43-3.51-2.26-4.59-2.35,7.16-4.41,10.33-4.53,11.25-.27,2-.33,3.18,1.26,3s1.13,2.11,2.42,1.7,1.16,2.29,2.32,1.3.38-4,.38-4S163.71,350.5,161,347.66Z"/><path class="cls-7" d="M159.42,296.7c-2.84,3.67-3.82,49.12-3.82,49.12l7.07,1s1.22-10,2.94-13.15,2.19-4.38.69-8.31,4.34-14.34,4.32-19.44S161.39,294.16,159.42,296.7Z"/><path class="cls-11" d="M180.93,336.48a.3.3,0,0,1-.3-.26L178,319.76a.3.3,0,0,1,0-.16l1.13-2.73a.3.3,0,1,1,.56.23l-1.1,2.65,2.65,16.37a.31.31,0,0,1-.25.35Z"/><path class="cls-11" d="M166.38,324.05h0a.3.3,0,0,1-.27-.33l1.62-16.37a15.13,15.13,0,0,0,0-4.75,4.8,4.8,0,0,0-2.65-3.51.29.29,0,0,1-.16-.39.3.3,0,0,1,.39-.17,5.4,5.4,0,0,1,3,3.94,15.18,15.18,0,0,1,.05,4.94l-1.62,16.37A.3.3,0,0,1,166.38,324.05Z"/><path class="cls-16" d="M174.41,378.06a.32.32,0,0,1-.25-.12l-5-7a.31.31,0,0,1,.07-.43.31.31,0,0,1,.42.07l5,7a.32.32,0,0,1-.07.43A.31.31,0,0,1,174.41,378.06Z"/><path class="cls-6" d="M168.31,287.91a34.57,34.57,0,0,0,12.62-13.74l-4.11-6.06s-14.57-4.3-18.3,6.06S168.31,287.91,168.31,287.91Z"/><path class="cls-2" d="M344.77,348.12l-13.85,2.35-17.65-3-.16,85.8h4.08l13.56-80.88L332,433.28h4.07s4.56-32.29,4.86-35.23,1.48-12,1.48-12Z"/><path class="cls-6" d="M334.33,259.78a12.91,12.91,0,0,0-11,1.49,29.12,29.12,0,0,0-7.17,6.89c-.61.83-5.29,7.75-4.47,8.61A32.21,32.21,0,0,0,330.22,286c6.34,1.09,12.92-.1,19.2-1-.63-7.76-3.52-15.85-8.86-21.42A14.31,14.31,0,0,0,334.33,259.78Z"/><path class="cls-3" d="M318.52,307l2.21,14.54c-5.82,8.49-8.9,21.32-12.76,63.77h42.18c-1.45-54.76-9.78-63.68-9.78-63.68l3.36-14.8c3-2.86,3.2-7.4,3.2-9.41s-.87-8.24-.87-8.24-12.58-5.89-15.61-5.89-14.2,5.89-14.2,5.89L315,297.21C314,303.09,318.52,307,318.52,307Z"/><path class="cls-5" d="M321.21,302.72c.13.82,2.11,23.2,2.11,23.2H339l2.93-23.79Z"/><path class="cls-3" d="M346.06,289.14c3.16,1.72,5.91,11.78,6.12,15.41s-.08,19.44-5.05,19.9-26.4-2.95-26.4-2.95l.48-5.14L342,314.43,343.62,297Z"/><path class="cls-3" d="M316.25,289.14c-4.83,2.57-5.72,16.74-5.49,21.59s-1.32,12.8,2.73,13,23-1.66,23-1.66l3.91-7.33L322.17,313Z"/><path class="cls-8" d="M333.93,298.16h-.06a14.77,14.77,0,0,1-8.37-5.31.3.3,0,0,1,.05-.42.3.3,0,0,1,.43.05,14.2,14.2,0,0,0,8,5.09.3.3,0,0,1,.23.36A.3.3,0,0,1,333.93,298.16Z"/><path class="cls-8" d="M343.62,306.72a.3.3,0,0,1-.26-.46,12.27,12.27,0,0,0,.88-11.17.3.3,0,0,1,0-.26c.25-.47.47-1,.7-1.48s.47-1,.72-1.51a.29.29,0,0,1,.4-.13.3.3,0,0,1,.13.41c-.24.47-.47,1-.69,1.48s-.43.94-.65,1.38a12.89,12.89,0,0,1-1,11.6A.31.31,0,0,1,343.62,306.72Z"/><path class="cls-8" d="M318.4,306.72a.31.31,0,0,1-.26-.14,12.89,12.89,0,0,1-1-11.6c-.22-.44-.43-.91-.64-1.38s-.46-1-.7-1.48a.3.3,0,0,1,.54-.28c.24.48.48,1,.71,1.51s.45,1,.7,1.48a.33.33,0,0,1,0,.26,12.24,12.24,0,0,0,.87,11.17.31.31,0,0,1-.1.42A.32.32,0,0,1,318.4,306.72Z"/><path class="cls-2" d="M327.75,278.88v7.4s3.75,6.33,7.19.15l-.3-7.55Z"/><path class="cls-2" d="M329.26,261.35c-6.38.83-7.4,8.2-5.87,14,1.15,4.35,3.75,8.74,7.84,8.63s6.56-5.7,7.29-9.13C339.7,269.35,339.48,260,329.26,261.35Z"/><path class="cls-2" d="M324.15,273.77s-.24-2.44-2.21-1.63.43,6.32,2.62,5.69S324.15,273.77,324.15,273.77Z"/><path class="cls-2" d="M337.26,273.65s.07-2.46,2.09-1.79,0,6.34-2.21,5.86S337.26,273.65,337.26,273.65Z"/><path class="cls-6" d="M337.92,263.17a4.36,4.36,0,0,0-1.6-.33,1.64,1.64,0,0,0-.75-.94c-2.23-1.2-7.51-1-9.83,0s-5,5.29-5.62,7.75c-.65,2.61,0,5.36.65,8a2.83,2.83,0,0,0,1.11,2c2.49,1.35,6.63-2.73,8.12-4.28a21,21,0,0,0,5-8.49c-.83,2.72-.05,12.92,4.45,12.74.47,0,.75-.51.94-.93a13.12,13.12,0,0,0,1.51-4.94C342,272,339.51,263.87,337.92,263.17Z"/><path class="cls-16" d="M331.26,284.31a5.4,5.4,0,0,1-2.77-.74.3.3,0,0,1-.11-.41.3.3,0,0,1,.42-.11,5,5,0,0,0,5.21-.17.29.29,0,0,1,.42.08.3.3,0,0,1-.08.42A5.5,5.5,0,0,1,331.26,284.31Z"/><polygon class="cls-3" points="317.19 433.28 315.92 438.43 308.82 438.43 312.37 435.86 313.11 433.28 317.19 433.28"/><polygon class="cls-3" points="331.98 433.28 331.98 438.43 339.08 438.43 335.53 435.86 336.05 433.28 331.98 433.28"/><path class="cls-2" d="M333.62,314.14a36.77,36.77,0,0,0,2.06,3.92c.08-.24,4.71-3.27,4.71-3.27s2.06-1.63,1.23-2.44.55-2.29.2-2.85a6.16,6.16,0,0,1-.57-1.75l-.86,2.31-2.64.31s0-2.31-.57-2.62-1.26,4.13-1.26,4.13Z"/><path class="cls-5" d="M394.94,296.57c-2,4.58-8.69,5.42-10.91,9.89-1.49,3-.33,6.8,2,9.21s5.6,3.67,8.83,4.55c7.2,2,15,2.44,22.11.24a18.7,18.7,0,0,0,7-3.72,10.38,10.38,0,0,0,3.62-6.94A7.31,7.31,0,0,0,424.2,303c-1.42-.79-3.15-1-4.36-2.12-1.79-1.6-1.76-4.35-1.69-6.75a85.72,85.72,0,0,0-.68-13.4c-.45-3.43-1.19-7-3.51-9.58a10.66,10.66,0,0,0-10.35-2.94,13.17,13.17,0,0,0-8.38,7.06A17.4,17.4,0,0,0,394,286.33C394.75,289.75,396.31,293.36,394.94,296.57Z"/><path class="cls-2" d="M387.49,377.11l0,8.84s-3.62,12.32-4.08,15.14c-.37,2.28-1,22.67-1.19,30.33-.05,1.8,3.82,1,3.82,1l.23-1,19.09-77.69.42,77.7s4,1.88,4.41,0c1.78-7.8,6.37-28.06,6.6-30.33.29-2.82-1-15.14-1-15.14l2-8.84-8.63-29.76Z"/><path class="cls-6" d="M382.18,431.42c-.05,1.8-.08,2.9-.08,2.9L376,438.43h9.55l.5-6.05.23-1Z"/><path class="cls-6" d="M410.15,431.42h-4.41l0,7h8.83l-5.16-4S409.72,433.31,410.15,431.42Z"/><path class="cls-2" d="M390.73,296.87c-3.16,1.95-16.56,16.94-17.16,18.76s15.73,22,15.73,22l2.35-4.08-9-15.62,10.53-12.13Z"/><path class="cls-2" d="M421.3,297.52c3.16,1.94,15.79,16.29,16.4,18.11s-15.74,22-15.74,22l-2.35-4.08L428.66,318l-10.53-12.13Z"/><path class="cls-6" d="M387.57,360.6l-.08,16.51h30.24l3.93-17.48c2.86-19.78-6.64-31.71-6.64-31.71l3.22-14.15c2.9-2.74,3.06-7.08,3.06-9v-7.24s-12.87-6.28-15.77-6.28-14.8,5.63-14.8,5.63v7.73c-1,5.63,3.38,9.33,3.38,9.33l2.57,14S384.71,343.59,387.57,360.6Z"/><path class="cls-2" d="M402.94,285.85v7.07s3.59,6.07,6.88.15l-.29-7.22Z"/><path class="cls-2" d="M404.39,269.07c-6.11.8-7.08,7.85-5.62,13.43,1.1,4.15,3.59,8.36,7.51,8.25s6.27-5.45,7-8.74C414.38,276.73,414.17,267.78,404.39,269.07Z"/><path class="cls-2" d="M399.5,281s-.23-2.33-2.12-1.55.42,6,2.51,5.44S399.5,281,399.5,281Z"/><path class="cls-2" d="M412,280.84s.07-2.35,2-1.71,0,6.06-2.11,5.61S412,280.84,412,280.84Z"/><path class="cls-16" d="M406.3,291.06a5.24,5.24,0,0,1-2.66-.72.3.3,0,0,1,.31-.52,4.82,4.82,0,0,0,5-.16.31.31,0,0,1,.42.08.3.3,0,0,1-.08.42A5.27,5.27,0,0,1,406.3,291.06Z"/><path class="cls-5" d="M409.34,272.93a19.59,19.59,0,0,1-2.56,10.67,12.21,12.21,0,0,1-9,5.92,21.48,21.48,0,0,1-1.92-10.17,12.81,12.81,0,0,1,4.76-8.9,9.25,9.25,0,0,1,9.78-.92,10.65,10.65,0,0,1,4.78,7,22.52,22.52,0,0,1,.51,7.28C411.49,281.52,408.75,277.68,409.34,272.93Z"/><path class="cls-17" d="M382.1,432.38"/><path class="cls-2" d="M419.61,333.58s-1-2.28-1.27-2.23a19.74,19.74,0,0,0-2.88,3.13c-.15.35.36,1.06.36,1.06l1-.51.4,1.42h.95s-1,.71-.95,1.21a.81.81,0,0,0,.56.66l1.49-.91,1.11,2,1.62-1.77Z"/><path class="cls-16" d="M417.74,338.62h-.09a1.11,1.11,0,0,1-.77-.92,1.35,1.35,0,0,1,.44-.94h-.14a.31.31,0,0,1-.29-.22l-.3-1-.63.33a.31.31,0,0,1-.39-.09c-.14-.2-.59-.89-.38-1.36a.3.3,0,1,1,.55.24,1,1,0,0,0,.19.54l.71-.37a.27.27,0,0,1,.26,0,.29.29,0,0,1,.17.19l.34,1.2h.72a.3.3,0,0,1,.29.21.3.3,0,0,1-.11.34c-.41.28-.84.74-.83.93a.47.47,0,0,0,.24.35l1.36-.83a.3.3,0,0,1,.31.52l-1.49.91A.32.32,0,0,1,417.74,338.62Z"/><path class="cls-2" d="M391.65,333.58s1-2.28,1.27-2.23a19.29,19.29,0,0,1,2.88,3.13c.15.35-.36,1.06-.36,1.06l-1-.51-.4,1.42h-.95s1,.71.95,1.21a.81.81,0,0,1-.56.66l-1.49-.91-1.1,2-1.63-1.77Z"/><path class="cls-16" d="M393.52,338.62a.26.26,0,0,1-.15,0l-1.5-.91a.31.31,0,0,1,.32-.52l1.35.83a.47.47,0,0,0,.24-.35c0-.19-.42-.65-.83-.93a.32.32,0,0,1-.11-.34.3.3,0,0,1,.29-.21h.72l.34-1.2a.29.29,0,0,1,.17-.19.27.27,0,0,1,.26,0l.72.37a1,1,0,0,0,.18-.54.3.3,0,0,1,.16-.4.32.32,0,0,1,.4.16c.2.47-.25,1.16-.39,1.36a.31.31,0,0,1-.39.09l-.63-.33-.3,1a.31.31,0,0,1-.29.22h-.14a1.31,1.31,0,0,1,.44.94,1.09,1.09,0,0,1-.77.92Z"/></g><g id="DESIGNED_BY_FREEPIK" data-name="DESIGNED BY FREEPIK"><path class="cls-24" d="M260.1,465.47a7.3,7.3,0,0,0-1.1,1.45l-.47-.24a.6.6,0,1,0-.52.73l.19-.05.45.23a7.1,7.1,0,0,0-.54,1.75l.74.13a6.58,6.58,0,0,1,1.8-3.48Z"/><path class="cls-24" d="M265.59,463.16l-.51,0-.07-.63a.69.69,0,0,0,.26-.64.72.72,0,1,0-1.42.17.71.71,0,0,0,.41.56l.07.62a8,8,0,0,0-2.06.65l.33.68a7,7,0,0,1,3-.67,6.71,6.71,0,0,1,1.48.16l.16-.74A7.56,7.56,0,0,0,265.59,463.16Z"/><path class="cls-24" d="M272.19,465.71a.6.6,0,1,0-.67-.59l-.42.36a7.36,7.36,0,0,0-1.41-1.13l-.4.64a6.7,6.7,0,0,1,2.56,2.92l.69-.31a7.46,7.46,0,0,0-.94-1.55l.4-.35A.41.41,0,0,0,272.19,465.71Z"/><path class="cls-24" d="M265,473.37c-.38,0-.77,0-1.15,0a15.87,15.87,0,0,1-2.48-.18,9.19,9.19,0,0,1-1.27-.29,6.2,6.2,0,0,0,11.34-1.38,10,10,0,0,1-2.46,1.12A16.69,16.69,0,0,1,265,473.37Z"/><path class="cls-24" d="M265.59,464.68a6,6,0,0,0-6.08,5.94,5.86,5.86,0,0,0,.14,1.26c.67.49,2.7.89,5.35.74a11.55,11.55,0,0,0,6.67-2.16,5.44,5.44,0,0,0-.05-.58A6,6,0,0,0,265.59,464.68Zm-2.16,6.51a1.85,1.85,0,1,1,1.85-1.85A1.85,1.85,0,0,1,263.43,471.19Zm4.74-.9a1.36,1.36,0,1,1,1.36-1.36A1.36,1.36,0,0,1,268.17,470.29Z"/><path class="cls-24" d="M281.6,466.55a2.82,2.82,0,0,0-1.39-.24c-.55.07-.84.34-.84,1v.86h2.23v1.72h-2.23v5.45h-1.93V469.9H276.1v-1.72h1.34v-.89a2.46,2.46,0,0,1,2.57-2.78,3.91,3.91,0,0,1,1.59.31Z"/><path class="cls-24" d="M286.3,469.88a3.27,3.27,0,0,0-.53-.05,1.44,1.44,0,0,0-1.51,1.62v3.9h-1.93v-7.17h1.87V469a2.25,2.25,0,0,1,2-1,1.8,1.8,0,0,1,1.1.34Z"/><path class="cls-24" d="M294,471.76a6,6,0,0,1,0,.65h-5.09a1.75,1.75,0,0,0,1.85,1.49,2.94,2.94,0,0,0,1.81-.69l1.13,1.24a4.33,4.33,0,0,1-3.05,1.09,3.78,3.78,0,0,1-.1-7.55A3.47,3.47,0,0,1,294,471.76Zm-5.12-.67H292a1.6,1.6,0,0,0-3.18,0Z"/><path class="cls-24" d="M301.62,471.76a6,6,0,0,1,0,.65H296.5a1.73,1.73,0,0,0,1.84,1.49,2.94,2.94,0,0,0,1.81-.69l1.14,1.24a4.37,4.37,0,0,1-3.06,1.09,3.78,3.78,0,0,1-.1-7.55A3.47,3.47,0,0,1,301.62,471.76Zm-5.12-.67h3.18a1.55,1.55,0,0,0-1.56-1.44A1.57,1.57,0,0,0,296.5,471.09Z"/><path class="cls-24" d="M310,471.76a3.55,3.55,0,0,1-3.47,3.78,2.65,2.65,0,0,1-2.11-.93v3.7h-1.92V468.18h1.89V469a2.6,2.6,0,0,1,2.14-1A3.55,3.55,0,0,1,310,471.76Zm-5.67,0a1.85,1.85,0,1,0,1.84-2A1.84,1.84,0,0,0,304.29,471.76Z"/><path class="cls-24" d="M313.07,465.84a1.24,1.24,0,0,1-2.47,0,1.24,1.24,0,1,1,2.47,0Zm-.26,9.51h-1.93v-7.17h1.93Z"/><path class="cls-24" d="M316,470.74l2.7-2.56h2.37l-3.48,3.38,3.5,3.79h-2.37l-2.72-2.9v2.9H314.1V464.7H316Z"/><path class="cls-24" d="M184.41,475.29v-1.06a3,3,0,0,1-2.39,1.23c-1.84,0-3.14-1.4-3.14-3.7S180.16,468,182,468a3,3,0,0,1,2.39,1.24v-3.76h1.1v9.77Zm0-1.92v-3.21a2.65,2.65,0,0,0-2.12-1.14c-1.42,0-2.27,1.17-2.27,2.74s.85,2.72,2.27,2.72A2.6,2.6,0,0,0,184.41,473.37Z"/><path class="cls-24" d="M186.93,471.74a3.54,3.54,0,0,1,3.49-3.7c2.14,0,3.4,1.67,3.4,3.79v.28h-5.73a2.5,2.5,0,0,0,2.55,2.45,3.11,3.11,0,0,0,2.18-.9l.53.72a3.87,3.87,0,0,1-2.81,1.08A3.51,3.51,0,0,1,186.93,471.74ZM190.4,469a2.35,2.35,0,0,0-2.31,2.35h4.64A2.29,2.29,0,0,0,190.4,469Z"/><path class="cls-24" d="M194.61,474.35l.57-.79a3.21,3.21,0,0,0,2.33,1c1.08,0,1.67-.51,1.67-1.21,0-1.72-4.38-.66-4.38-3.29,0-1.09.95-2,2.63-2a3.6,3.6,0,0,1,2.63,1l-.52.77a2.73,2.73,0,0,0-2.11-.9c-1,0-1.56.49-1.56,1.12,0,1.55,4.38.52,4.38,3.28,0,1.18-1,2.13-2.79,2.13A3.75,3.75,0,0,1,194.61,474.35Z"/><path class="cls-24" d="M201.48,466.47a.74.74,0,0,1,.73-.75.76.76,0,0,1,.75.75.74.74,0,0,1-.75.73A.73.73,0,0,1,201.48,466.47Zm.19,8.82v-7.08h1.1v7.08Z"/><path class="cls-24" d="M204.58,477.11l.56-.83a2.68,2.68,0,0,0,2.3,1,2,2,0,0,0,2.27-2.12v-1a3,3,0,0,1-2.37,1.26c-1.85,0-3.15-1.38-3.15-3.67s1.29-3.67,3.15-3.67a2.94,2.94,0,0,1,2.37,1.24v-1.07h1.1v6.87c0,2.35-1.64,3.08-3.37,3.08A3.63,3.63,0,0,1,204.58,477.11Zm5.13-3.86v-3.09A2.62,2.62,0,0,0,207.6,469c-1.42,0-2.27,1.13-2.27,2.69s.85,2.7,2.27,2.7A2.61,2.61,0,0,0,209.71,473.25Z"/><path class="cls-24" d="M217.41,475.29v-4.63c0-1.24-.63-1.64-1.58-1.64a2.73,2.73,0,0,0-2.09,1.1v5.17h-1.1v-7.08h1.1v1a3.47,3.47,0,0,1,2.52-1.2,2,2,0,0,1,2.25,2.28v5Z"/><path class="cls-24" d="M219.93,471.74a3.54,3.54,0,0,1,3.49-3.7c2.14,0,3.4,1.67,3.4,3.79v.28h-5.73a2.5,2.5,0,0,0,2.55,2.45,3.11,3.11,0,0,0,2.18-.9l.53.72a3.85,3.85,0,0,1-2.81,1.08A3.51,3.51,0,0,1,219.93,471.74ZM223.4,469a2.36,2.36,0,0,0-2.31,2.35h4.64A2.28,2.28,0,0,0,223.4,469Z"/><path class="cls-24" d="M233.35,475.29v-1.06a3,3,0,0,1-2.39,1.23c-1.84,0-3.15-1.4-3.15-3.7S229.1,468,231,468a3,3,0,0,1,2.39,1.24v-3.76h1.1v9.77Zm0-1.92v-3.21a2.68,2.68,0,0,0-2.12-1.14c-1.42,0-2.27,1.17-2.27,2.74s.85,2.72,2.27,2.72A2.63,2.63,0,0,0,233.35,473.37Z"/><path class="cls-24" d="M239.69,475.29v-9.77h1.1v3.76a3,3,0,0,1,2.39-1.24c1.84,0,3.15,1.46,3.15,3.72s-1.31,3.7-3.15,3.7a3,3,0,0,1-2.39-1.23v1.06Zm3.21-.81c1.44,0,2.29-1.15,2.29-2.72s-.85-2.74-2.29-2.74a2.65,2.65,0,0,0-2.11,1.14v3.21A2.59,2.59,0,0,0,242.9,474.48Z"/><path class="cls-24" d="M247.53,477.06a1.73,1.73,0,0,0,.6.12,1,1,0,0,0,1.05-.75l.47-1.07-3-7.15h1.19l2.36,5.8,2.34-5.8h1.2l-3.54,8.51a2.1,2.1,0,0,1-2.08,1.44,3.52,3.52,0,0,1-.81-.1Z"/></g></svg>